<svg width="375" height="812" viewBox="0 0 375 812" fill="none" xmlns="http://www.w3.org/2000/svg">
<rect width="375" height="812" fill="#F0F2F5"/>
<rect opacity="0.2" x="24.75" y="273.75" width="158.5" height="54.5" rx="4.25" stroke="#969CB3" stroke-width="1.5"/>
<path d="M97.352 296.242V306H96.078V296.242H97.352ZM103.261 298.188C104.195 298.188 104.951 298.473 105.529 299.042C106.108 299.602 106.397 300.414 106.397 301.478V306H105.137V301.66C105.137 300.895 104.946 300.311 104.563 299.91C104.181 299.499 103.658 299.294 102.995 299.294C102.323 299.294 101.787 299.504 101.385 299.924C100.993 300.344 100.797 300.955 100.797 301.758V306H99.5233V298.328H100.797V299.42C101.049 299.028 101.39 298.725 101.819 298.51C102.258 298.295 102.739 298.188 103.261 298.188ZM108.002 302.15C108.002 301.357 108.161 300.666 108.478 300.078C108.796 299.481 109.234 299.019 109.794 298.692C110.364 298.365 111.012 298.202 111.74 298.202C112.683 298.202 113.458 298.431 114.064 298.888C114.68 299.345 115.086 299.98 115.282 300.792H113.91C113.78 300.325 113.523 299.957 113.14 299.686C112.767 299.415 112.3 299.28 111.74 299.28C111.012 299.28 110.424 299.532 109.976 300.036C109.528 300.531 109.304 301.235 109.304 302.15C109.304 303.074 109.528 303.788 109.976 304.292C110.424 304.796 111.012 305.048 111.74 305.048C112.3 305.048 112.767 304.917 113.14 304.656C113.514 304.395 113.77 304.021 113.91 303.536H115.282C115.077 304.32 114.666 304.95 114.05 305.426C113.434 305.893 112.664 306.126 111.74 306.126C111.012 306.126 110.364 305.963 109.794 305.636C109.234 305.309 108.796 304.847 108.478 304.25C108.161 303.653 108.002 302.953 108.002 302.15ZM120.328 306.126C119.61 306.126 118.956 305.963 118.368 305.636C117.79 305.309 117.332 304.847 116.996 304.25C116.67 303.643 116.506 302.943 116.506 302.15C116.506 301.366 116.674 300.675 117.01 300.078C117.356 299.471 117.822 299.009 118.41 298.692C118.998 298.365 119.656 298.202 120.384 298.202C121.112 298.202 121.77 298.365 122.358 298.692C122.946 299.009 123.408 299.467 123.744 300.064C124.09 300.661 124.262 301.357 124.262 302.15C124.262 302.943 124.085 303.643 123.73 304.25C123.385 304.847 122.914 305.309 122.316 305.636C121.719 305.963 121.056 306.126 120.328 306.126ZM120.328 305.006C120.786 305.006 121.215 304.899 121.616 304.684C122.018 304.469 122.34 304.147 122.582 303.718C122.834 303.289 122.96 302.766 122.96 302.15C122.96 301.534 122.839 301.011 122.596 300.582C122.354 300.153 122.036 299.835 121.644 299.63C121.252 299.415 120.828 299.308 120.37 299.308C119.904 299.308 119.474 299.415 119.082 299.63C118.7 299.835 118.392 300.153 118.158 300.582C117.925 301.011 117.808 301.534 117.808 302.15C117.808 302.775 117.92 303.303 118.144 303.732C118.378 304.161 118.686 304.483 119.068 304.698C119.451 304.903 119.871 305.006 120.328 305.006ZM135.163 298.188C135.761 298.188 136.293 298.314 136.759 298.566C137.226 298.809 137.595 299.177 137.865 299.672C138.136 300.167 138.271 300.769 138.271 301.478V306H137.011V301.66C137.011 300.895 136.82 300.311 136.437 299.91C136.064 299.499 135.555 299.294 134.911 299.294C134.249 299.294 133.721 299.509 133.329 299.938C132.937 300.358 132.741 300.969 132.741 301.772V306H131.481V301.66C131.481 300.895 131.29 300.311 130.907 299.91C130.534 299.499 130.025 299.294 129.381 299.294C128.719 299.294 128.191 299.509 127.799 299.938C127.407 300.358 127.211 300.969 127.211 301.772V306H125.937V298.328H127.211V299.434C127.463 299.033 127.799 298.725 128.219 298.51C128.649 298.295 129.12 298.188 129.633 298.188C130.277 298.188 130.847 298.333 131.341 298.622C131.836 298.911 132.205 299.336 132.447 299.896C132.662 299.355 133.017 298.935 133.511 298.636C134.006 298.337 134.557 298.188 135.163 298.188ZM147.361 301.87C147.361 302.113 147.347 302.369 147.319 302.64H141.187C141.234 303.396 141.491 303.989 141.957 304.418C142.433 304.838 143.007 305.048 143.679 305.048C144.23 305.048 144.687 304.922 145.051 304.67C145.425 304.409 145.686 304.063 145.835 303.634H147.207C147.002 304.371 146.591 304.973 145.975 305.44C145.359 305.897 144.594 306.126 143.679 306.126C142.951 306.126 142.298 305.963 141.719 305.636C141.15 305.309 140.702 304.847 140.375 304.25C140.049 303.643 139.885 302.943 139.885 302.15C139.885 301.357 140.044 300.661 140.361 300.064C140.679 299.467 141.122 299.009 141.691 298.692C142.27 298.365 142.933 298.202 143.679 298.202C144.407 298.202 145.051 298.361 145.611 298.678C146.171 298.995 146.601 299.434 146.899 299.994C147.207 300.545 147.361 301.17 147.361 301.87ZM146.045 301.604C146.045 301.119 145.938 300.703 145.723 300.358C145.509 300.003 145.215 299.737 144.841 299.56C144.477 299.373 144.071 299.28 143.623 299.28C142.979 299.28 142.429 299.485 141.971 299.896C141.523 300.307 141.267 300.876 141.201 301.604H146.045Z" fill="#363F5F"/>
<path d="M71 291C65.4772 291 61 295.477 61 301C61 306.523 65.4772 311 71 311C76.5228 311 81 306.523 81 301C81 295.477 76.5228 291 71 291Z" stroke="#12A454" stroke-width="1.5" stroke-linecap="round" stroke-linejoin="round"/>
<path d="M75 301L71 297L67 301" stroke="#12A454" stroke-width="1.5" stroke-linecap="round" stroke-linejoin="round"/>
<path d="M71 305L71 297" stroke="#12A454" stroke-width="1.5" stroke-linecap="round" stroke-linejoin="round"/>
<path opacity="0.2" d="M192.75 278C192.75 275.653 194.653 273.75 197 273.75H346C348.347 273.75 350.25 275.653 350.25 278V324C350.25 326.347 348.347 328.25 346 328.25H197C194.653 328.25 192.75 326.347 192.75 324V278Z" stroke="#969CB3" stroke-width="1.5"/>
<path d="M262.502 306.098C261.597 306.098 260.771 305.888 260.024 305.468C259.277 305.039 258.685 304.446 258.246 303.69C257.817 302.925 257.602 302.066 257.602 301.114C257.602 300.162 257.817 299.308 258.246 298.552C258.685 297.787 259.277 297.194 260.024 296.774C260.771 296.345 261.597 296.13 262.502 296.13C263.417 296.13 264.247 296.345 264.994 296.774C265.741 297.194 266.329 297.782 266.758 298.538C267.187 299.294 267.402 300.153 267.402 301.114C267.402 302.075 267.187 302.934 266.758 303.69C266.329 304.446 265.741 305.039 264.994 305.468C264.247 305.888 263.417 306.098 262.502 306.098ZM262.502 304.992C263.183 304.992 263.795 304.833 264.336 304.516C264.887 304.199 265.316 303.746 265.624 303.158C265.941 302.57 266.1 301.889 266.1 301.114C266.1 300.33 265.941 299.649 265.624 299.07C265.316 298.482 264.891 298.029 264.35 297.712C263.809 297.395 263.193 297.236 262.502 297.236C261.811 297.236 261.195 297.395 260.654 297.712C260.113 298.029 259.683 298.482 259.366 299.07C259.058 299.649 258.904 300.33 258.904 301.114C258.904 301.889 259.058 302.57 259.366 303.158C259.683 303.746 260.113 304.199 260.654 304.516C261.205 304.833 261.821 304.992 262.502 304.992ZM275.888 298.328V306H274.614V304.866C274.371 305.258 274.031 305.566 273.592 305.79C273.163 306.005 272.687 306.112 272.164 306.112C271.567 306.112 271.03 305.991 270.554 305.748C270.078 305.496 269.7 305.123 269.42 304.628C269.149 304.133 269.014 303.531 269.014 302.822V298.328H270.274V302.654C270.274 303.41 270.465 303.993 270.848 304.404C271.231 304.805 271.753 305.006 272.416 305.006C273.097 305.006 273.634 304.796 274.026 304.376C274.418 303.956 274.614 303.345 274.614 302.542V298.328H275.888ZM279.593 299.378V303.9C279.593 304.273 279.672 304.539 279.831 304.698C279.99 304.847 280.265 304.922 280.657 304.922H281.595V306H280.447C279.738 306 279.206 305.837 278.851 305.51C278.496 305.183 278.319 304.647 278.319 303.9V299.378H277.325V298.328H278.319V296.396H279.593V298.328H281.595V299.378H279.593ZM282.663 302.15C282.663 301.357 282.821 300.666 283.139 300.078C283.456 299.481 283.895 299.019 284.455 298.692C285.024 298.365 285.673 298.202 286.401 298.202C287.343 298.202 288.118 298.431 288.725 298.888C289.341 299.345 289.747 299.98 289.943 300.792H288.571C288.44 300.325 288.183 299.957 287.801 299.686C287.427 299.415 286.961 299.28 286.401 299.28C285.673 299.28 285.085 299.532 284.637 300.036C284.189 300.531 283.965 301.235 283.965 302.15C283.965 303.074 284.189 303.788 284.637 304.292C285.085 304.796 285.673 305.048 286.401 305.048C286.961 305.048 287.427 304.917 287.801 304.656C288.174 304.395 288.431 304.021 288.571 303.536H289.943C289.737 304.32 289.327 304.95 288.711 305.426C288.095 305.893 287.325 306.126 286.401 306.126C285.673 306.126 285.024 305.963 284.455 305.636C283.895 305.309 283.456 304.847 283.139 304.25C282.821 303.653 282.663 302.953 282.663 302.15ZM294.988 306.126C294.27 306.126 293.616 305.963 293.028 305.636C292.45 305.309 291.992 304.847 291.656 304.25C291.33 303.643 291.166 302.943 291.166 302.15C291.166 301.366 291.334 300.675 291.67 300.078C292.016 299.471 292.482 299.009 293.07 298.692C293.658 298.365 294.316 298.202 295.044 298.202C295.772 298.202 296.43 298.365 297.018 298.692C297.606 299.009 298.068 299.467 298.404 300.064C298.75 300.661 298.922 301.357 298.922 302.15C298.922 302.943 298.745 303.643 298.39 304.25C298.045 304.847 297.574 305.309 296.976 305.636C296.379 305.963 295.716 306.126 294.988 306.126ZM294.988 305.006C295.446 305.006 295.875 304.899 296.276 304.684C296.678 304.469 297 304.147 297.242 303.718C297.494 303.289 297.62 302.766 297.62 302.15C297.62 301.534 297.499 301.011 297.256 300.582C297.014 300.153 296.696 299.835 296.304 299.63C295.912 299.415 295.488 299.308 295.03 299.308C294.564 299.308 294.134 299.415 293.742 299.63C293.36 299.835 293.052 300.153 292.818 300.582C292.585 301.011 292.468 301.534 292.468 302.15C292.468 302.775 292.58 303.303 292.804 303.732C293.038 304.161 293.346 304.483 293.728 304.698C294.111 304.903 294.531 305.006 294.988 305.006ZM309.824 298.188C310.421 298.188 310.953 298.314 311.42 298.566C311.886 298.809 312.255 299.177 312.526 299.672C312.796 300.167 312.932 300.769 312.932 301.478V306H311.672V301.66C311.672 300.895 311.48 300.311 311.098 299.91C310.724 299.499 310.216 299.294 309.572 299.294C308.909 299.294 308.382 299.509 307.99 299.938C307.598 300.358 307.402 300.969 307.402 301.772V306H306.142V301.66C306.142 300.895 305.95 300.311 305.568 299.91C305.194 299.499 304.686 299.294 304.042 299.294C303.379 299.294 302.852 299.509 302.46 299.938C302.068 300.358 301.872 300.969 301.872 301.772V306H300.598V298.328H301.872V299.434C302.124 299.033 302.46 298.725 302.88 298.51C303.309 298.295 303.78 298.188 304.294 298.188C304.938 298.188 305.507 298.333 306.002 298.622C306.496 298.911 306.865 299.336 307.108 299.896C307.322 299.355 307.677 298.935 308.172 298.636C308.666 298.337 309.217 298.188 309.824 298.188ZM322.021 301.87C322.021 302.113 322.007 302.369 321.979 302.64H315.847C315.894 303.396 316.151 303.989 316.617 304.418C317.093 304.838 317.667 305.048 318.339 305.048C318.89 305.048 319.347 304.922 319.711 304.67C320.085 304.409 320.346 304.063 320.495 303.634H321.867C321.662 304.371 321.251 304.973 320.635 305.44C320.019 305.897 319.254 306.126 318.339 306.126C317.611 306.126 316.958 305.963 316.379 305.636C315.81 305.309 315.362 304.847 315.035 304.25C314.709 303.643 314.545 302.943 314.545 302.15C314.545 301.357 314.704 300.661 315.021 300.064C315.339 299.467 315.782 299.009 316.351 298.692C316.93 298.365 317.593 298.202 318.339 298.202C319.067 298.202 319.711 298.361 320.271 298.678C320.831 298.995 321.261 299.434 321.559 299.994C321.867 300.545 322.021 301.17 322.021 301.87ZM320.705 301.604C320.705 301.119 320.598 300.703 320.383 300.358C320.169 300.003 319.875 299.737 319.501 299.56C319.137 299.373 318.731 299.28 318.283 299.28C317.639 299.28 317.089 299.485 316.631 299.896C316.183 300.307 315.927 300.876 315.861 301.604H320.705Z" fill="#363F5F"/>
<path d="M233 311C238.523 311 243 306.523 243 301C243 295.477 238.523 291 233 291C227.477 291 223 295.477 223 301C223 306.523 227.477 311 233 311Z" stroke="#E83F5B" stroke-width="1.5" stroke-linecap="round" stroke-linejoin="round"/>
<path d="M229 301L233 305L237 301" stroke="#E83F5B" stroke-width="1.5" stroke-linecap="round" stroke-linejoin="round"/>
<path d="M233 297L233 305" stroke="#E83F5B" stroke-width="1.5" stroke-linecap="round" stroke-linejoin="round"/>
<rect x="24" y="137" width="327" height="56" rx="5" fill="white"/>
<path d="M47.476 160.228V167.984L42.352 160.228H41.078V170H42.352V162.23L47.476 170H48.75V160.228H47.476ZM58.2018 166.15C58.2018 163.728 56.5078 162.202 54.3238 162.202C52.1538 162.202 50.4458 163.728 50.4458 166.15C50.4458 168.586 52.0978 170.126 54.2678 170.126C56.4518 170.126 58.2018 168.586 58.2018 166.15ZM51.7478 166.15C51.7478 164.218 52.9658 163.308 54.3098 163.308C55.6258 163.308 56.8998 164.218 56.8998 166.15C56.8998 168.096 55.5978 169.006 54.2678 169.006C52.9378 169.006 51.7478 168.096 51.7478 166.15ZM70.9508 170H72.2108V165.478C72.2108 163.28 70.8528 162.188 69.1028 162.188C67.9268 162.188 66.8348 162.79 66.3868 163.896C65.8828 162.748 64.8328 162.188 63.5728 162.188C62.5648 162.188 61.6548 162.622 61.1508 163.434V162.328H59.8768V170H61.1508V165.772C61.1508 164.12 62.0328 163.294 63.3208 163.294C64.5808 163.294 65.4208 164.092 65.4208 165.66V170H66.6808V165.772C66.6808 164.12 67.5628 163.294 68.8508 163.294C70.1108 163.294 70.9508 164.092 70.9508 165.66V170ZM77.5627 163.28C78.8787 163.28 79.9987 164.106 79.9847 165.604H75.1407C75.2807 164.106 76.3167 163.28 77.5627 163.28ZM81.1467 167.634H79.7747C79.4947 168.46 78.7667 169.048 77.6187 169.048C76.3167 169.048 75.2247 168.194 75.1267 166.64H81.2587C81.2867 166.374 81.3007 166.15 81.3007 165.87C81.3007 163.77 79.8447 162.202 77.6187 162.202C75.3787 162.202 73.8247 163.728 73.8247 166.15C73.8247 168.586 75.4347 170.126 77.6187 170.126C79.5227 170.126 80.7547 169.034 81.1467 167.634Z" fill="#969CB3"/>
<rect x="24" y="201" width="327" height="56" rx="5" fill="white"/>
<path d="M42.352 228.876V225.292H44.228C45.684 225.292 46.3 225.964 46.3 227.098C46.3 228.19 45.684 228.876 44.228 228.876H42.352ZM47.602 227.098C47.602 225.502 46.524 224.242 44.228 224.242H41.078V234H42.352V229.926H44.228C46.65 229.926 47.602 228.582 47.602 227.098ZM50.4594 229.828C50.4594 228.05 51.3834 227.504 52.6014 227.504H52.9374V226.188C51.7194 226.188 50.8934 226.72 50.4594 227.574V226.328H49.1854V234H50.4594V229.828ZM57.6701 227.28C58.9861 227.28 60.1061 228.106 60.0921 229.604H55.2481C55.3881 228.106 56.4241 227.28 57.6701 227.28ZM61.2541 231.634H59.8821C59.6021 232.46 58.8741 233.048 57.7261 233.048C56.4241 233.048 55.3321 232.194 55.2341 230.64H61.3661C61.3941 230.374 61.4081 230.15 61.4081 229.87C61.4081 227.77 59.9521 226.202 57.7261 226.202C55.4861 226.202 53.9321 227.728 53.9321 230.15C53.9321 232.586 55.5421 234.126 57.7261 234.126C59.6301 234.126 60.8621 233.034 61.2541 231.634ZM62.6137 230.15C62.6137 232.404 63.9577 233.902 65.8897 234.098V235.596H66.5897C67.1917 235.596 67.4857 235.764 67.4857 236.198C67.4857 236.646 67.1917 236.814 66.5897 236.814H65.2317V237.64H66.8417C67.8357 237.64 68.5497 237.08 68.5497 236.198C68.5497 235.274 67.8217 234.798 66.7437 234.812V234.112C68.4237 233.972 69.5297 232.95 69.8937 231.536H68.5217C68.2417 232.502 67.4857 233.048 66.3517 233.048C64.9517 233.048 63.9157 232.054 63.9157 230.15C63.9157 228.274 64.9517 227.28 66.3517 227.28C67.4857 227.28 68.2557 227.868 68.5217 228.792H69.8937C69.5017 227.182 68.2557 226.202 66.3517 226.202C64.1677 226.202 62.6137 227.742 62.6137 230.15ZM78.8736 230.15C78.8736 227.728 77.1796 226.202 74.9956 226.202C72.8256 226.202 71.1176 227.728 71.1176 230.15C71.1176 232.586 72.7696 234.126 74.9396 234.126C77.1236 234.126 78.8736 232.586 78.8736 230.15ZM72.4196 230.15C72.4196 228.218 73.6376 227.308 74.9816 227.308C76.2976 227.308 77.5716 228.218 77.5716 230.15C77.5716 232.096 76.2696 233.006 74.9396 233.006C73.6096 233.006 72.4196 232.096 72.4196 230.15Z" fill="#969CB3"/>
<rect x="24" y="345" width="327" height="56" rx="5" fill="white"/>
<path d="M40.602 373.114C40.602 376.04 42.744 378.084 45.474 378.084C47.588 378.084 49.268 377.034 49.996 375.158H48.47C47.938 376.32 46.902 376.978 45.474 376.978C43.43 376.978 41.904 375.494 41.904 373.114C41.904 370.72 43.43 369.236 45.474 369.236C46.902 369.236 47.938 369.894 48.47 371.07H49.996C49.268 369.18 47.588 368.116 45.474 368.116C42.744 368.116 40.602 370.188 40.602 373.114ZM51.4165 374.136C51.4165 376.516 52.9985 378.126 55.0425 378.126C56.4565 378.126 57.4505 377.398 57.9125 376.572V378H59.2005V370.328H57.9125V371.728C57.4645 370.93 56.4845 370.202 55.0565 370.202C52.9985 370.202 51.4165 371.742 51.4165 374.136ZM57.9125 374.15C57.9125 375.956 56.7085 377.006 55.3085 377.006C53.9085 377.006 52.7185 375.942 52.7185 374.136C52.7185 372.33 53.9085 371.308 55.3085 371.308C56.7085 371.308 57.9125 372.372 57.9125 374.15ZM61.6334 375.9C61.6334 377.44 62.4034 378 63.7614 378H64.9094V376.922H63.9714C63.1874 376.922 62.9074 376.656 62.9074 375.9V371.378H64.9094V370.328H62.9074V368.396H61.6334V370.328H60.6394V371.378H61.6334V375.9ZM69.715 371.28C71.031 371.28 72.151 372.106 72.137 373.604H67.293C67.433 372.106 68.469 371.28 69.715 371.28ZM73.299 375.634H71.927C71.647 376.46 70.919 377.048 69.771 377.048C68.469 377.048 67.377 376.194 67.279 374.64H73.411C73.439 374.374 73.453 374.15 73.453 373.87C73.453 371.77 71.997 370.202 69.771 370.202C67.531 370.202 65.977 371.728 65.977 374.15C65.977 376.586 67.587 378.126 69.771 378.126C71.675 378.126 72.907 377.034 73.299 375.634ZM74.6586 374.136C74.6586 376.516 76.2406 378.126 78.2986 378.126C79.6986 378.126 80.6926 377.384 81.1546 376.558V378.168C81.1546 379.806 80.1326 380.674 78.7746 380.674C77.5146 380.674 76.6046 380.044 76.3246 379.12H75.0646C75.3166 380.758 76.7586 381.78 78.7746 381.78C81.0286 381.78 82.4426 380.282 82.4426 378.168V370.328H81.1546V371.728C80.7066 370.902 79.6986 370.202 78.2986 370.202C76.2406 370.202 74.6586 371.742 74.6586 374.136ZM81.1546 374.15C81.1546 375.956 79.9506 377.006 78.5506 377.006C77.1506 377.006 75.9606 375.942 75.9606 374.136C75.9606 372.33 77.1506 371.308 78.5506 371.308C79.9506 371.308 81.1546 372.372 81.1546 374.15ZM91.8756 374.15C91.8756 371.728 90.1816 370.202 87.9976 370.202C85.8276 370.202 84.1196 371.728 84.1196 374.15C84.1196 376.586 85.7716 378.126 87.9416 378.126C90.1256 378.126 91.8756 376.586 91.8756 374.15ZM85.4216 374.15C85.4216 372.218 86.6396 371.308 87.9836 371.308C89.2996 371.308 90.5736 372.218 90.5736 374.15C90.5736 376.096 89.2716 377.006 87.9416 377.006C86.6116 377.006 85.4216 376.096 85.4216 374.15ZM94.8247 373.828C94.8247 372.05 95.7487 371.504 96.9667 371.504H97.3027V370.188C96.0847 370.188 95.2587 370.72 94.8247 371.574V370.328H93.5507V378H94.8247V373.828ZM98.7733 378H100.047V370.328H98.7733V378ZM99.4313 369.082C99.8933 369.082 100.271 368.704 100.271 368.214C100.271 367.724 99.8933 367.346 99.4313 367.346C98.9413 367.346 98.5633 367.724 98.5633 368.214C98.5633 368.704 98.9413 369.082 99.4313 369.082ZM101.743 374.136C101.743 376.516 103.325 378.126 105.369 378.126C106.783 378.126 107.777 377.398 108.239 376.572V378H109.527V370.328H108.239V371.728C107.791 370.93 106.811 370.202 105.383 370.202C103.325 370.202 101.743 371.742 101.743 374.136ZM108.239 374.15C108.239 375.956 107.035 377.006 105.635 377.006C104.235 377.006 103.045 375.942 103.045 374.136C103.045 372.33 104.235 371.308 105.635 371.308C107.035 371.308 108.239 372.372 108.239 374.15Z" fill="#969CB3"/>
<path d="M338 370.5L333 375.5L328 370.5" stroke="#969CB3" stroke-width="1.5" stroke-linecap="round" stroke-linejoin="round"/>
<g filter="url(#filter0_d_4_1182)">
<rect x="24" y="660" width="327" height="56" rx="5" fill="white"/>
<path d="M169.12 683.358V686.214H172.48V687.516H169.12V690.498H172.9V691.8H167.524V682.056H172.9V683.358H169.12ZM178.757 683.96C179.364 683.96 179.905 684.086 180.381 684.338C180.867 684.59 181.245 684.963 181.515 685.458C181.786 685.953 181.921 686.55 181.921 687.25V691.8H180.339V687.488C180.339 686.797 180.167 686.27 179.821 685.906C179.476 685.533 179.005 685.346 178.407 685.346C177.81 685.346 177.334 685.533 176.979 685.906C176.634 686.27 176.461 686.797 176.461 687.488V691.8H174.865V684.086H176.461V684.968C176.723 684.651 177.054 684.403 177.455 684.226C177.866 684.049 178.3 683.96 178.757 683.96ZM186.939 690.372L189.123 684.086H190.817L187.877 691.8H185.973L183.047 684.086H184.755L186.939 690.372ZM192.836 683.064C192.546 683.064 192.304 682.966 192.108 682.77C191.912 682.574 191.814 682.331 191.814 682.042C191.814 681.753 191.912 681.51 192.108 681.314C192.304 681.118 192.546 681.02 192.836 681.02C193.116 681.02 193.354 681.118 193.55 681.314C193.746 681.51 193.844 681.753 193.844 682.042C193.844 682.331 193.746 682.574 193.55 682.77C193.354 682.966 193.116 683.064 192.836 683.064ZM193.62 684.086V691.8H192.024V684.086H193.62ZM195.183 687.908C195.183 687.133 195.342 686.447 195.659 685.85C195.986 685.253 196.424 684.791 196.975 684.464C197.535 684.128 198.151 683.96 198.823 683.96C199.43 683.96 199.957 684.081 200.405 684.324C200.862 684.557 201.226 684.851 201.497 685.206V684.086H203.107V691.8H201.497V690.652C201.226 691.016 200.858 691.319 200.391 691.562C199.924 691.805 199.392 691.926 198.795 691.926C198.132 691.926 197.526 691.758 196.975 691.422C196.424 691.077 195.986 690.601 195.659 689.994C195.342 689.378 195.183 688.683 195.183 687.908ZM201.497 687.936C201.497 687.404 201.385 686.942 201.161 686.55C200.946 686.158 200.662 685.859 200.307 685.654C199.952 685.449 199.57 685.346 199.159 685.346C198.748 685.346 198.366 685.449 198.011 685.654C197.656 685.85 197.367 686.144 197.143 686.536C196.928 686.919 196.821 687.376 196.821 687.908C196.821 688.44 196.928 688.907 197.143 689.308C197.367 689.709 197.656 690.017 198.011 690.232C198.375 690.437 198.758 690.54 199.159 690.54C199.57 690.54 199.952 690.437 200.307 690.232C200.662 690.027 200.946 689.728 201.161 689.336C201.385 688.935 201.497 688.468 201.497 687.936ZM206.799 685.206C207.033 684.814 207.341 684.511 207.723 684.296C208.115 684.072 208.577 683.96 209.109 683.96V685.612H208.703C208.078 685.612 207.602 685.771 207.275 686.088C206.958 686.405 206.799 686.956 206.799 687.74V691.8H205.203V684.086H206.799V685.206Z" fill="#333333"/>
</g>
<rect width="375" height="113" fill="black"/>
<rect x="120" y="799" width="135" height="5" rx="2.5" fill="#E5E5E5"/>
<path d="M78 0H297C294.894 0.602689 293.418 2.49525 293.345 4.68446L293.317 5.5618C293.317 19.0587 282.375 30 268.878 30H106.122C92.6249 30 81.6835 19.0587 81.6835 5.5618L81.6545 4.68447C81.5823 2.49525 80.1059 0.602689 78 0Z" fill="#E5E5E5"/>
<path opacity="0.35" d="M336.5 22C336.5 20.8034 337.47 19.8334 338.667 19.8334H355.333C356.53 19.8334 357.5 20.8034 357.5 22V28C357.5 29.1967 356.53 30.1667 355.333 30.1667H338.667C337.47 30.1667 336.5 29.1967 336.5 28V22Z" fill="white" stroke="#E5E5E5"/>
<path opacity="0.4" d="M359 23V27C359.805 26.6613 360.328 25.8732 360.328 25C360.328 24.1269 359.805 23.3388 359 23Z" fill="white"/>
<path d="M338 22.6667C338 21.9303 338.597 21.3334 339.333 21.3334H354.667C355.403 21.3334 356 21.9303 356 22.6667V27.3334C356 28.0698 355.403 28.6667 354.667 28.6667H339.333C338.597 28.6667 338 28.0698 338 27.3334V22.6667Z" fill="white"/>
<path fill-rule="evenodd" clip-rule="evenodd" d="M323.33 21.608C325.546 21.6081 327.677 22.4596 329.283 23.9863C329.404 24.1042 329.598 24.1027 329.717 23.983L330.873 22.8163C330.933 22.7556 330.967 22.6734 330.966 22.5878C330.966 22.5022 330.931 22.4204 330.87 22.3603C326.655 18.3208 320.005 18.3208 315.79 22.3603C315.729 22.4203 315.694 22.5021 315.694 22.5877C315.693 22.6733 315.727 22.7556 315.787 22.8163L316.943 23.983C317.062 24.1029 317.256 24.1044 317.377 23.9863C318.983 22.4595 321.114 21.608 323.33 21.608ZM323.33 25.4037C324.548 25.4036 325.722 25.8561 326.624 26.6733C326.746 26.7893 326.939 26.7868 327.058 26.6677L328.212 25.501C328.273 25.4398 328.307 25.3568 328.306 25.2705C328.305 25.1843 328.27 25.102 328.208 25.042C325.459 22.4856 321.204 22.4856 318.455 25.042C318.393 25.102 318.358 25.1843 318.357 25.2706C318.356 25.3569 318.39 25.4399 318.451 25.501L319.605 26.6677C319.724 26.7868 319.917 26.7893 320.039 26.6733C320.941 25.8567 322.114 25.4042 323.33 25.4037ZM325.643 27.9575C325.645 28.044 325.611 28.1274 325.549 28.188L323.552 30.2037C323.493 30.2629 323.414 30.2963 323.33 30.2963C323.247 30.2963 323.167 30.2629 323.109 30.2037L321.111 28.188C321.049 28.1274 321.015 28.0439 321.017 27.9574C321.019 27.8709 321.056 27.789 321.121 27.731C322.396 26.6521 324.264 26.6521 325.54 27.731C325.604 27.7891 325.642 27.871 325.643 27.9575Z" fill="white"/>
<path fill-rule="evenodd" clip-rule="evenodd" d="M309.667 19.6666H308.667C308.114 19.6666 307.667 20.1143 307.667 20.6666V29.3333C307.667 29.8856 308.114 30.3333 308.667 30.3333H309.667C310.219 30.3333 310.667 29.8856 310.667 29.3333V20.6666C310.667 20.1143 310.219 19.6666 309.667 19.6666ZM304 22H305C305.552 22 306 22.4477 306 23V29.3333C306 29.8856 305.552 30.3333 305 30.3333H304C303.448 30.3333 303 29.8856 303 29.3333V23C303 22.4477 303.448 22 304 22ZM300.333 24.3333H299.333C298.781 24.3333 298.333 24.781 298.333 25.3333V29.3333C298.333 29.8856 298.781 30.3333 299.333 30.3333H300.333C300.886 30.3333 301.333 29.8856 301.333 29.3333V25.3333C301.333 24.781 300.886 24.3333 300.333 24.3333ZM295.667 26.3333H294.667C294.114 26.3333 293.667 26.781 293.667 27.3333V29.3333C293.667 29.8856 294.114 30.3333 294.667 30.3333H295.667C296.219 30.3333 296.667 29.8856 296.667 29.3333V27.3333C296.667 26.781 296.219 26.3333 295.667 26.3333Z" fill="white"/>
<path d="M37.3207 30.2563C40.0087 30.2563 41.6053 28.1543 41.6053 24.5947C41.6053 23.2544 41.349 22.1265 40.8583 21.2549C40.1478 19.8999 38.9247 19.1675 37.3793 19.1675C35.0795 19.1675 33.4535 20.7129 33.4535 22.8809C33.4535 24.917 34.9183 26.3965 36.9325 26.3965C38.1703 26.3965 39.1737 25.8179 39.6718 24.8145H39.6937C39.6937 24.8145 39.723 24.8145 39.7303 24.8145C39.745 24.8145 39.7963 24.8145 39.7963 24.8145C39.7963 27.2314 38.8807 28.6743 37.3353 28.6743C36.4271 28.6743 35.724 28.1763 35.4823 27.3779H33.6C33.9149 29.1138 35.3871 30.2563 37.3207 30.2563ZM37.3866 24.895C36.1708 24.895 35.3065 24.0308 35.3065 22.8223C35.3065 21.6431 36.2147 20.7422 37.3939 20.7422C38.5731 20.7422 39.4813 21.6577 39.4813 22.8516C39.4813 24.0308 38.5951 24.895 37.3866 24.895Z" fill="white"/>
<path d="M44.6965 30.1538C45.3923 30.1538 45.8683 29.6558 45.8683 28.9966C45.8683 28.3301 45.3923 27.8394 44.6965 27.8394C44.008 27.8394 43.5246 28.3301 43.5246 28.9966C43.5246 29.6558 44.008 30.1538 44.6965 30.1538ZM44.6965 24.6606C45.3923 24.6606 45.8683 24.1699 45.8683 23.5107C45.8683 22.8442 45.3923 22.3535 44.6965 22.3535C44.008 22.3535 43.5246 22.8442 43.5246 23.5107C43.5246 24.1699 44.008 24.6606 44.6965 24.6606Z" fill="white"/>
<path d="M52.7241 30H54.5332V28.0298H55.9614V26.4331H54.5332V19.4312H51.8672C49.9995 22.2437 48.5127 24.5947 47.5605 26.3452V28.0298H52.7241V30ZM49.311 26.3672C50.5415 24.1992 51.6401 22.4634 52.6509 20.9692H52.7534V26.4771H49.311V26.3672Z" fill="white"/>
<path d="M59.99 30H61.8797V19.4312H59.9973L57.2361 21.3647V23.1812L59.8655 21.3354H59.99V30Z" fill="white"/>
<path d="M146.981 80.718C146.981 79.494 147.257 78.396 147.809 77.424C148.361 76.44 149.111 75.672 150.059 75.12C151.019 74.568 152.081 74.292 153.245 74.292C154.613 74.292 155.807 74.622 156.827 75.282C157.847 75.942 158.591 76.878 159.059 78.09H157.097C156.749 77.334 156.245 76.752 155.585 76.344C154.937 75.936 154.157 75.732 153.245 75.732C152.369 75.732 151.583 75.936 150.887 76.344C150.191 76.752 149.645 77.334 149.249 78.09C148.853 78.834 148.655 79.71 148.655 80.718C148.655 81.714 148.853 82.59 149.249 83.346C149.645 84.09 150.191 84.666 150.887 85.074C151.583 85.482 152.369 85.686 153.245 85.686C154.157 85.686 154.937 85.488 155.585 85.092C156.245 84.684 156.749 84.102 157.097 83.346H159.059C158.591 84.546 157.847 85.476 156.827 86.136C155.807 86.784 154.613 87.108 153.245 87.108C152.081 87.108 151.019 86.838 150.059 86.298C149.111 85.746 148.361 84.984 147.809 84.012C147.257 83.04 146.981 81.942 146.981 80.718ZM160.885 82.032C160.885 81.024 161.089 80.142 161.497 79.386C161.905 78.618 162.463 78.024 163.171 77.604C163.891 77.184 164.689 76.974 165.565 76.974C166.429 76.974 167.179 77.16 167.815 77.532C168.451 77.904 168.925 78.372 169.237 78.936V77.136H170.893V87H169.237V85.164C168.913 85.74 168.427 86.22 167.779 86.604C167.143 86.976 166.399 87.162 165.547 87.162C164.671 87.162 163.879 86.946 163.171 86.514C162.463 86.082 161.905 85.476 161.497 84.696C161.089 83.916 160.885 83.028 160.885 82.032ZM169.237 82.05C169.237 81.306 169.087 80.658 168.787 80.106C168.487 79.554 168.079 79.134 167.563 78.846C167.059 78.546 166.501 78.396 165.889 78.396C165.277 78.396 164.719 78.54 164.215 78.828C163.711 79.116 163.309 79.536 163.009 80.088C162.709 80.64 162.559 81.288 162.559 82.032C162.559 82.788 162.709 83.448 163.009 84.012C163.309 84.564 163.711 84.99 164.215 85.29C164.719 85.578 165.277 85.722 165.889 85.722C166.501 85.722 167.059 85.578 167.563 85.29C168.079 84.99 168.487 84.564 168.787 84.012C169.087 83.448 169.237 82.794 169.237 82.05ZM173.049 82.032C173.049 81.024 173.253 80.142 173.661 79.386C174.069 78.618 174.627 78.024 175.335 77.604C176.055 77.184 176.859 76.974 177.747 76.974C178.515 76.974 179.229 77.154 179.889 77.514C180.549 77.862 181.053 78.324 181.401 78.9V73.68H183.057V87H181.401V85.146C181.077 85.734 180.597 86.22 179.961 86.604C179.325 86.976 178.581 87.162 177.729 87.162C176.853 87.162 176.055 86.946 175.335 86.514C174.627 86.082 174.069 85.476 173.661 84.696C173.253 83.916 173.049 83.028 173.049 82.032ZM181.401 82.05C181.401 81.306 181.251 80.658 180.951 80.106C180.651 79.554 180.243 79.134 179.727 78.846C179.223 78.546 178.665 78.396 178.053 78.396C177.441 78.396 176.883 78.54 176.379 78.828C175.875 79.116 175.473 79.536 175.173 80.088C174.873 80.64 174.723 81.288 174.723 82.032C174.723 82.788 174.873 83.448 175.173 84.012C175.473 84.564 175.875 84.99 176.379 85.29C176.883 85.578 177.441 85.722 178.053 85.722C178.665 85.722 179.223 85.578 179.727 85.29C180.243 84.99 180.651 84.564 180.951 84.012C181.251 83.448 181.401 82.794 181.401 82.05ZM185.213 82.032C185.213 81.024 185.417 80.142 185.825 79.386C186.233 78.618 186.791 78.024 187.499 77.604C188.219 77.184 189.017 76.974 189.893 76.974C190.757 76.974 191.507 77.16 192.143 77.532C192.779 77.904 193.253 78.372 193.565 78.936V77.136H195.221V87H193.565V85.164C193.241 85.74 192.755 86.22 192.107 86.604C191.471 86.976 190.727 87.162 189.875 87.162C188.999 87.162 188.207 86.946 187.499 86.514C186.791 86.082 186.233 85.476 185.825 84.696C185.417 83.916 185.213 83.028 185.213 82.032ZM193.565 82.05C193.565 81.306 193.415 80.658 193.115 80.106C192.815 79.554 192.407 79.134 191.891 78.846C191.387 78.546 190.829 78.396 190.217 78.396C189.605 78.396 189.047 78.54 188.543 78.828C188.039 79.116 187.637 79.536 187.337 80.088C187.037 80.64 186.887 81.288 186.887 82.032C186.887 82.788 187.037 83.448 187.337 84.012C187.637 84.564 188.039 84.99 188.543 85.29C189.047 85.578 189.605 85.722 190.217 85.722C190.829 85.722 191.387 85.578 191.891 85.29C192.407 84.99 192.815 84.564 193.115 84.012C193.415 83.448 193.565 82.794 193.565 82.05ZM201.482 87.162C200.726 87.162 200.048 87.036 199.448 86.784C198.848 86.52 198.374 86.16 198.026 85.704C197.678 85.236 197.486 84.702 197.45 84.102H199.142C199.19 84.594 199.418 84.996 199.826 85.308C200.246 85.62 200.792 85.776 201.464 85.776C202.088 85.776 202.58 85.638 202.94 85.362C203.3 85.086 203.48 84.738 203.48 84.318C203.48 83.886 203.288 83.568 202.904 83.364C202.52 83.148 201.926 82.938 201.122 82.734C200.39 82.542 199.79 82.35 199.322 82.158C198.866 81.954 198.47 81.66 198.134 81.276C197.81 80.88 197.648 80.364 197.648 79.728C197.648 79.224 197.798 78.762 198.098 78.342C198.398 77.922 198.824 77.592 199.376 77.352C199.928 77.1 200.558 76.974 201.266 76.974C202.358 76.974 203.24 77.25 203.912 77.802C204.584 78.354 204.944 79.11 204.992 80.07H203.354C203.318 79.554 203.108 79.14 202.724 78.828C202.352 78.516 201.848 78.36 201.212 78.36C200.624 78.36 200.156 78.486 199.808 78.738C199.46 78.99 199.286 79.32 199.286 79.728C199.286 80.052 199.388 80.322 199.592 80.538C199.808 80.742 200.072 80.91 200.384 81.042C200.708 81.162 201.152 81.3 201.716 81.456C202.424 81.648 203 81.84 203.444 82.032C203.888 82.212 204.266 82.488 204.578 82.86C204.902 83.232 205.07 83.718 205.082 84.318C205.082 84.858 204.932 85.344 204.632 85.776C204.332 86.208 203.906 86.55 203.354 86.802C202.814 87.042 202.19 87.162 201.482 87.162ZM209.392 78.486V84.3C209.392 84.78 209.494 85.122 209.698 85.326C209.902 85.518 210.256 85.614 210.76 85.614H211.966V87H210.49C209.578 87 208.894 86.79 208.438 86.37C207.982 85.95 207.754 85.26 207.754 84.3V78.486H206.476V77.136H207.754V74.652H209.392V77.136H211.966V78.486H209.392ZM215.588 78.738C215.876 78.174 216.284 77.736 216.812 77.424C217.352 77.112 218.006 76.956 218.774 76.956V78.648H218.342C216.506 78.648 215.588 79.644 215.588 81.636V87H213.95V77.136H215.588V78.738ZM224.967 87.162C224.043 87.162 223.203 86.952 222.447 86.532C221.703 86.112 221.115 85.518 220.683 84.75C220.263 83.97 220.053 83.07 220.053 82.05C220.053 81.042 220.269 80.154 220.701 79.386C221.145 78.606 221.745 78.012 222.501 77.604C223.257 77.184 224.103 76.974 225.039 76.974C225.975 76.974 226.821 77.184 227.577 77.604C228.333 78.012 228.927 78.6 229.359 79.368C229.803 80.136 230.025 81.03 230.025 82.05C230.025 83.07 229.797 83.97 229.341 84.75C228.897 85.518 228.291 86.112 227.523 86.532C226.755 86.952 225.903 87.162 224.967 87.162ZM224.967 85.722C225.555 85.722 226.107 85.584 226.623 85.308C227.139 85.032 227.553 84.618 227.865 84.066C228.189 83.514 228.351 82.842 228.351 82.05C228.351 81.258 228.195 80.586 227.883 80.034C227.571 79.482 227.163 79.074 226.659 78.81C226.155 78.534 225.609 78.396 225.021 78.396C224.421 78.396 223.869 78.534 223.365 78.81C222.873 79.074 222.477 79.482 222.177 80.034C221.877 80.586 221.727 81.258 221.727 82.05C221.727 82.854 221.871 83.532 222.159 84.084C222.459 84.636 222.855 85.05 223.347 85.326C223.839 85.59 224.379 85.722 224.967 85.722Z" fill="white"/>
<defs>
<filter id="filter0_d_4_1182" x="20" y="660" width="335" height="64" filterUnits="userSpaceOnUse" color-interpolation-filters="sRGB">
<feFlood flood-opacity="0" result="BackgroundImageFix"/>
<feColorMatrix in="SourceAlpha" type="matrix" values="0 0 0 0 0 0 0 0 0 0 0 0 0 0 0 0 0 0 127 0" result="hardAlpha"/>
<feOffset dy="4"/>
<feGaussianBlur stdDeviation="2"/>
<feComposite in2="hardAlpha" operator="out"/>
<feColorMatrix type="matrix" values="0 0 0 0 0 0 0 0 0 0 0 0 0 0 0 0 0 0 0.25 0"/>
<feBlend mode="normal" in2="BackgroundImageFix" result="effect1_dropShadow_4_1182"/>
<feBlend mode="normal" in="SourceGraphic" in2="effect1_dropShadow_4_1182" result="shape"/>
</filter>
</defs>
</svg>
