<svg width="375" height="812" viewBox="0 0 375 812" fill="none" xmlns="http://www.w3.org/2000/svg">
<rect width="375" height="812" fill="#F0F2F5"/>
<rect width="375" height="567" fill="#E4BAC3"/>
<rect width="375" height="245" transform="matrix(1 0 0 -1 0 812)" fill="black"/>
<rect x="120" y="799" width="135" height="5" rx="2.5" fill="#E5E5E5"/>
<path d="M78 0H297C294.894 0.602689 293.418 2.49525 293.345 4.68446L293.317 5.5618C293.317 19.0587 282.375 30 268.878 30H106.122C92.6249 30 81.6835 19.0587 81.6835 5.5618L81.6545 4.68447C81.5823 2.49525 80.1059 0.602689 78 0Z" fill="#E5E5E5"/>
<path opacity="0.35" d="M336.5 22C336.5 20.8034 337.47 19.8334 338.667 19.8334H355.333C356.53 19.8334 357.5 20.8034 357.5 22V28C357.5 29.1967 356.53 30.1667 355.333 30.1667H338.667C337.47 30.1667 336.5 29.1967 336.5 28V22Z" fill="white" stroke="#E5E5E5"/>
<path opacity="0.4" d="M359 23V27C359.805 26.6613 360.328 25.8732 360.328 25C360.328 24.1269 359.805 23.3388 359 23Z" fill="white"/>
<path d="M338 22.6667C338 21.9303 338.597 21.3334 339.333 21.3334H354.667C355.403 21.3334 356 21.9303 356 22.6667V27.3334C356 28.0698 355.403 28.6667 354.667 28.6667H339.333C338.597 28.6667 338 28.0698 338 27.3334V22.6667Z" fill="white"/>
<path fill-rule="evenodd" clip-rule="evenodd" d="M323.33 21.608C325.546 21.6081 327.677 22.4596 329.283 23.9863C329.404 24.1042 329.598 24.1027 329.717 23.983L330.873 22.8163C330.933 22.7556 330.967 22.6734 330.966 22.5878C330.966 22.5022 330.931 22.4204 330.87 22.3603C326.655 18.3208 320.005 18.3208 315.79 22.3603C315.729 22.4203 315.694 22.5021 315.694 22.5877C315.693 22.6733 315.727 22.7556 315.787 22.8163L316.943 23.983C317.062 24.1029 317.256 24.1044 317.377 23.9863C318.983 22.4595 321.114 21.608 323.33 21.608ZM323.33 25.4037C324.548 25.4036 325.722 25.8561 326.624 26.6733C326.746 26.7893 326.939 26.7868 327.058 26.6677L328.212 25.501C328.273 25.4398 328.307 25.3568 328.306 25.2705C328.305 25.1843 328.27 25.102 328.208 25.042C325.459 22.4856 321.204 22.4856 318.455 25.042C318.393 25.102 318.358 25.1843 318.357 25.2706C318.356 25.3569 318.39 25.4399 318.451 25.501L319.605 26.6677C319.724 26.7868 319.917 26.7893 320.039 26.6733C320.941 25.8567 322.114 25.4042 323.33 25.4037ZM325.643 27.9575C325.645 28.044 325.611 28.1274 325.549 28.188L323.552 30.2037C323.493 30.2629 323.414 30.2963 323.33 30.2963C323.247 30.2963 323.167 30.2629 323.109 30.2037L321.111 28.188C321.049 28.1274 321.015 28.0439 321.017 27.9574C321.019 27.8709 321.056 27.789 321.121 27.731C322.396 26.6521 324.264 26.6521 325.54 27.731C325.604 27.7891 325.642 27.871 325.643 27.9575Z" fill="white"/>
<path fill-rule="evenodd" clip-rule="evenodd" d="M309.667 19.6666H308.667C308.114 19.6666 307.667 20.1143 307.667 20.6666V29.3333C307.667 29.8856 308.114 30.3333 308.667 30.3333H309.667C310.219 30.3333 310.667 29.8856 310.667 29.3333V20.6666C310.667 20.1143 310.219 19.6666 309.667 19.6666ZM304 22H305C305.552 22 306 22.4477 306 23V29.3333C306 29.8856 305.552 30.3333 305 30.3333H304C303.448 30.3333 303 29.8856 303 29.3333V23C303 22.4477 303.448 22 304 22ZM300.333 24.3333H299.333C298.781 24.3333 298.333 24.781 298.333 25.3333V29.3333C298.333 29.8856 298.781 30.3333 299.333 30.3333H300.333C300.886 30.3333 301.333 29.8856 301.333 29.3333V25.3333C301.333 24.781 300.886 24.3333 300.333 24.3333ZM295.667 26.3333H294.667C294.114 26.3333 293.667 26.781 293.667 27.3333V29.3333C293.667 29.8856 294.114 30.3333 294.667 30.3333H295.667C296.219 30.3333 296.667 29.8856 296.667 29.3333V27.3333C296.667 26.781 296.219 26.3333 295.667 26.3333Z" fill="white"/>
<path d="M37.3207 30.2563C40.0087 30.2563 41.6054 28.1543 41.6054 24.5947C41.6054 23.2544 41.349 22.1265 40.8583 21.2549C40.1479 19.8999 38.9247 19.1675 37.3793 19.1675C35.0795 19.1675 33.4535 20.7129 33.4535 22.8809C33.4535 24.917 34.9184 26.3965 36.9325 26.3965C38.1703 26.3965 39.1737 25.8179 39.6718 24.8145H39.6937C39.6937 24.8145 39.723 24.8145 39.7304 24.8145C39.745 24.8145 39.7963 24.8145 39.7963 24.8145C39.7963 27.2314 38.8808 28.6743 37.3354 28.6743C36.4271 28.6743 35.724 28.1763 35.4823 27.3779H33.6C33.9149 29.1138 35.3871 30.2563 37.3207 30.2563ZM37.3866 24.895C36.1708 24.895 35.3065 24.0308 35.3065 22.8223C35.3065 21.6431 36.2147 20.7422 37.3939 20.7422C38.5731 20.7422 39.4813 21.6577 39.4813 22.8516C39.4813 24.0308 38.5951 24.895 37.3866 24.895Z" fill="white"/>
<path d="M44.6965 30.1538C45.3923 30.1538 45.8684 29.6558 45.8684 28.9966C45.8684 28.3301 45.3923 27.8394 44.6965 27.8394C44.008 27.8394 43.5246 28.3301 43.5246 28.9966C43.5246 29.6558 44.008 30.1538 44.6965 30.1538ZM44.6965 24.6606C45.3923 24.6606 45.8684 24.1699 45.8684 23.5107C45.8684 22.8442 45.3923 22.3535 44.6965 22.3535C44.008 22.3535 43.5246 22.8442 43.5246 23.5107C43.5246 24.1699 44.008 24.6606 44.6965 24.6606Z" fill="white"/>
<path d="M52.7241 30H54.5332V28.0298H55.9614V26.4331H54.5332V19.4312H51.8672C49.9995 22.2437 48.5127 24.5947 47.5605 26.3452V28.0298H52.7241V30ZM49.311 26.3672C50.5415 24.1992 51.6401 22.4634 52.6509 20.9692H52.7534V26.4771H49.311V26.3672Z" fill="white"/>
<path d="M59.99 30H61.8797V19.4312H59.9974L57.2361 21.3647V23.1812L59.8655 21.3354H59.99V30Z" fill="white"/>
<rect x="32" y="540" width="311" height="56" rx="5" fill="white"/>
<rect x="32" y="612" width="311" height="56" rx="5" fill="white"/>
<path d="M158.101 636.558V639.414H161.461V640.716H158.101V643.698H161.881V645H156.505V635.256H161.881V636.558H158.101ZM167.739 637.16C168.346 637.16 168.887 637.286 169.363 637.538C169.848 637.79 170.226 638.163 170.497 638.658C170.768 639.153 170.903 639.75 170.903 640.45V645H169.321V640.688C169.321 639.997 169.148 639.47 168.803 639.106C168.458 638.733 167.986 638.546 167.389 638.546C166.792 638.546 166.316 638.733 165.961 639.106C165.616 639.47 165.443 639.997 165.443 640.688V645H163.847V637.286H165.443V638.168C165.704 637.851 166.036 637.603 166.437 637.426C166.848 637.249 167.282 637.16 167.739 637.16ZM174.801 638.588V642.858C174.801 643.147 174.866 643.357 174.997 643.488C175.137 643.609 175.37 643.67 175.697 643.67H176.677V645H175.417C174.698 645 174.147 644.832 173.765 644.496C173.382 644.16 173.191 643.614 173.191 642.858V638.588H172.281V637.286H173.191V635.368H174.801V637.286H176.677V638.588H174.801ZM179.744 638.406C179.977 638.014 180.285 637.711 180.668 637.496C181.06 637.272 181.522 637.16 182.054 637.16V638.812H181.648C181.022 638.812 180.546 638.971 180.22 639.288C179.902 639.605 179.744 640.156 179.744 640.94V645H178.148V637.286H179.744V638.406ZM182.989 641.108C182.989 640.333 183.147 639.647 183.465 639.05C183.791 638.453 184.23 637.991 184.781 637.664C185.341 637.328 185.957 637.16 186.629 637.16C187.235 637.16 187.763 637.281 188.211 637.524C188.668 637.757 189.032 638.051 189.303 638.406V637.286H190.913V645H189.303V643.852C189.032 644.216 188.663 644.519 188.197 644.762C187.73 645.005 187.198 645.126 186.601 645.126C185.938 645.126 185.331 644.958 184.781 644.622C184.23 644.277 183.791 643.801 183.465 643.194C183.147 642.578 182.989 641.883 182.989 641.108ZM189.303 641.136C189.303 640.604 189.191 640.142 188.967 639.75C188.752 639.358 188.467 639.059 188.113 638.854C187.758 638.649 187.375 638.546 186.965 638.546C186.554 638.546 186.171 638.649 185.817 638.854C185.462 639.05 185.173 639.344 184.949 639.736C184.734 640.119 184.627 640.576 184.627 641.108C184.627 641.64 184.734 642.107 184.949 642.508C185.173 642.909 185.462 643.217 185.817 643.432C186.181 643.637 186.563 643.74 186.965 643.74C187.375 643.74 187.758 643.637 188.113 643.432C188.467 643.227 188.752 642.928 188.967 642.536C189.191 642.135 189.303 641.668 189.303 641.136ZM194.605 638.406C194.838 638.014 195.146 637.711 195.529 637.496C195.921 637.272 196.383 637.16 196.915 637.16V638.812H196.509C195.884 638.812 195.408 638.971 195.081 639.288C194.764 639.605 194.605 640.156 194.605 640.94V645H193.009V637.286H194.605V638.406ZM201.487 641.136C201.487 640.343 201.645 639.647 201.963 639.05C202.289 638.443 202.737 637.977 203.307 637.65C203.876 637.323 204.529 637.16 205.267 637.16C206.2 637.16 206.97 637.384 207.577 637.832C208.193 638.271 208.608 638.901 208.823 639.722H207.101C206.961 639.339 206.737 639.041 206.429 638.826C206.121 638.611 205.733 638.504 205.267 638.504C204.613 638.504 204.091 638.737 203.699 639.204C203.316 639.661 203.125 640.305 203.125 641.136C203.125 641.967 203.316 642.615 203.699 643.082C204.091 643.549 204.613 643.782 205.267 643.782C206.191 643.782 206.802 643.376 207.101 642.564H208.823C208.599 643.348 208.179 643.973 207.563 644.44C206.947 644.897 206.181 645.126 205.267 645.126C204.529 645.126 203.876 644.963 203.307 644.636C202.737 644.3 202.289 643.833 201.963 643.236C201.645 642.629 201.487 641.929 201.487 641.136ZM213.759 645.126C213.031 645.126 212.373 644.963 211.785 644.636C211.197 644.3 210.735 643.833 210.399 643.236C210.063 642.629 209.895 641.929 209.895 641.136C209.895 640.352 210.068 639.657 210.413 639.05C210.759 638.443 211.23 637.977 211.827 637.65C212.425 637.323 213.092 637.16 213.829 637.16C214.567 637.16 215.234 637.323 215.831 637.65C216.429 637.977 216.9 638.443 217.245 639.05C217.591 639.657 217.763 640.352 217.763 641.136C217.763 641.92 217.586 642.615 217.231 643.222C216.877 643.829 216.391 644.3 215.775 644.636C215.169 644.963 214.497 645.126 213.759 645.126ZM213.759 643.74C214.17 643.74 214.553 643.642 214.907 643.446C215.271 643.25 215.565 642.956 215.789 642.564C216.013 642.172 216.125 641.696 216.125 641.136C216.125 640.576 216.018 640.105 215.803 639.722C215.589 639.33 215.304 639.036 214.949 638.84C214.595 638.644 214.212 638.546 213.801 638.546C213.391 638.546 213.008 638.644 212.653 638.84C212.308 639.036 212.033 639.33 211.827 639.722C211.622 640.105 211.519 640.576 211.519 641.136C211.519 641.967 211.729 642.611 212.149 643.068C212.579 643.516 213.115 643.74 213.759 643.74ZM228.679 637.16C229.286 637.16 229.827 637.286 230.303 637.538C230.788 637.79 231.166 638.163 231.437 638.658C231.717 639.153 231.857 639.75 231.857 640.45V645H230.275V640.688C230.275 639.997 230.102 639.47 229.757 639.106C229.412 638.733 228.94 638.546 228.343 638.546C227.746 638.546 227.27 638.733 226.915 639.106C226.57 639.47 226.397 639.997 226.397 640.688V645H224.815V640.688C224.815 639.997 224.642 639.47 224.297 639.106C223.952 638.733 223.48 638.546 222.883 638.546C222.286 638.546 221.81 638.733 221.455 639.106C221.11 639.47 220.937 639.997 220.937 640.688V645H219.341V637.286H220.937V638.168C221.198 637.851 221.53 637.603 221.931 637.426C222.332 637.249 222.762 637.16 223.219 637.16C223.835 637.16 224.386 637.291 224.871 637.552C225.356 637.813 225.73 638.191 225.991 638.686C226.224 638.219 226.588 637.851 227.083 637.58C227.578 637.3 228.11 637.16 228.679 637.16ZM243.391 643.012H239.317L238.617 645H236.951L240.437 635.256H242.285L245.771 645H244.091L243.391 643.012ZM242.943 641.71L241.361 637.188L239.765 641.71H242.943ZM248.882 638.42C249.153 638.065 249.522 637.767 249.988 637.524C250.455 637.281 250.982 637.16 251.57 637.16C252.242 637.16 252.854 637.328 253.404 637.664C253.964 637.991 254.403 638.453 254.72 639.05C255.038 639.647 255.196 640.333 255.196 641.108C255.196 641.883 255.038 642.578 254.72 643.194C254.403 643.801 253.964 644.277 253.404 644.622C252.854 644.958 252.242 645.126 251.57 645.126C250.982 645.126 250.46 645.009 250.002 644.776C249.545 644.533 249.172 644.235 248.882 643.88V648.668H247.286V637.286H248.882V638.42ZM253.572 641.108C253.572 640.576 253.46 640.119 253.236 639.736C253.022 639.344 252.732 639.05 252.368 638.854C252.014 638.649 251.631 638.546 251.22 638.546C250.819 638.546 250.436 638.649 250.072 638.854C249.718 639.059 249.428 639.358 249.204 639.75C248.99 640.142 248.882 640.604 248.882 641.136C248.882 641.668 248.99 642.135 249.204 642.536C249.428 642.928 249.718 643.227 250.072 643.432C250.436 643.637 250.819 643.74 251.22 643.74C251.631 643.74 252.014 643.637 252.368 643.432C252.732 643.217 253.022 642.909 253.236 642.508C253.46 642.107 253.572 641.64 253.572 641.108ZM258.371 638.42C258.641 638.065 259.01 637.767 259.477 637.524C259.943 637.281 260.471 637.16 261.059 637.16C261.731 637.16 262.342 637.328 262.893 637.664C263.453 637.991 263.891 638.453 264.209 639.05C264.526 639.647 264.685 640.333 264.685 641.108C264.685 641.883 264.526 642.578 264.209 643.194C263.891 643.801 263.453 644.277 262.893 644.622C262.342 644.958 261.731 645.126 261.059 645.126C260.471 645.126 259.948 645.009 259.491 644.776C259.033 644.533 258.66 644.235 258.371 643.88V648.668H256.775V637.286H258.371V638.42ZM263.061 641.108C263.061 640.576 262.949 640.119 262.725 639.736C262.51 639.344 262.221 639.05 261.857 638.854C261.502 638.649 261.119 638.546 260.709 638.546C260.307 638.546 259.925 638.649 259.561 638.854C259.206 639.059 258.917 639.358 258.693 639.75C258.478 640.142 258.371 640.604 258.371 641.136C258.371 641.668 258.478 642.135 258.693 642.536C258.917 642.928 259.206 643.227 259.561 643.432C259.925 643.637 260.307 643.74 260.709 643.74C261.119 643.74 261.502 643.637 261.857 643.432C262.221 643.217 262.51 642.909 262.725 642.508C262.949 642.107 263.061 641.64 263.061 641.108ZM267.859 634.64V645H266.263V634.64H267.859ZM277.024 640.954C277.024 641.243 277.006 641.505 276.968 641.738H271.074C271.121 642.354 271.35 642.849 271.76 643.222C272.171 643.595 272.675 643.782 273.272 643.782C274.131 643.782 274.738 643.423 275.092 642.704H276.814C276.581 643.413 276.156 643.997 275.54 644.454C274.934 644.902 274.178 645.126 273.272 645.126C272.535 645.126 271.872 644.963 271.284 644.636C270.706 644.3 270.248 643.833 269.912 643.236C269.586 642.629 269.422 641.929 269.422 641.136C269.422 640.343 269.581 639.647 269.898 639.05C270.225 638.443 270.678 637.977 271.256 637.65C271.844 637.323 272.516 637.16 273.272 637.16C274 637.16 274.649 637.319 275.218 637.636C275.788 637.953 276.231 638.401 276.548 638.98C276.866 639.549 277.024 640.207 277.024 640.954ZM275.358 640.45C275.349 639.862 275.139 639.391 274.728 639.036C274.318 638.681 273.809 638.504 273.202 638.504C272.652 638.504 272.18 638.681 271.788 639.036C271.396 639.381 271.163 639.853 271.088 640.45H275.358Z" fill="#363F5F"/>
<path d="M56.6839 652C53.1119 651.979 50.1573 644.688 50.1573 640.975C50.1573 634.909 54.7077 633.581 56.4614 633.581C57.2517 633.581 58.0956 633.891 58.8399 634.166C59.3604 634.357 59.8987 634.555 60.1981 634.555C60.3773 634.555 60.7996 634.387 61.1725 634.239C61.9676 633.923 62.9571 633.529 64.1092 633.529C64.1113 633.529 64.1141 633.529 64.1161 633.529C64.9764 633.529 67.585 633.718 69.1533 636.073L69.5207 636.625L68.992 637.024C68.2367 637.594 66.8586 638.634 66.8586 640.693C66.8586 643.132 68.4193 644.07 69.1691 644.521C69.5001 644.72 69.8427 644.926 69.8427 645.375C69.8427 645.668 67.5026 651.964 64.1044 651.964C63.2729 651.964 62.6851 651.714 62.1667 651.493C61.6421 651.27 61.1896 651.078 60.4418 651.078C60.0628 651.078 59.5835 651.257 59.0761 651.447C58.3827 651.706 57.5978 652 56.7072 652H56.6839Z" fill="#41414D"/>
<path d="M64.4693 628C64.5578 631.191 62.2757 633.405 59.9962 633.266C59.6206 630.719 62.2754 628 64.4693 628Z" fill="#41414D"/>
<path d="M152.884 564.558V567.414H156.244V568.716H152.884V571.698H156.664V573H151.288V563.256H156.664V564.558H152.884ZM162.522 565.16C163.129 565.16 163.67 565.286 164.146 565.538C164.631 565.79 165.009 566.163 165.28 566.658C165.551 567.153 165.686 567.75 165.686 568.45V573H164.104V568.688C164.104 567.997 163.931 567.47 163.586 567.106C163.241 566.733 162.769 566.546 162.172 566.546C161.575 566.546 161.099 566.733 160.744 567.106C160.399 567.47 160.226 567.997 160.226 568.688V573H158.63V565.286H160.226V566.168C160.487 565.851 160.819 565.603 161.22 565.426C161.631 565.249 162.065 565.16 162.522 565.16ZM169.584 566.588V570.858C169.584 571.147 169.649 571.357 169.78 571.488C169.92 571.609 170.153 571.67 170.48 571.67H171.46V573H170.2C169.481 573 168.931 572.832 168.548 572.496C168.165 572.16 167.974 571.614 167.974 570.858V566.588H167.064V565.286H167.974V563.368H169.584V565.286H171.46V566.588H169.584ZM174.527 566.406C174.76 566.014 175.068 565.711 175.451 565.496C175.843 565.272 176.305 565.16 176.837 565.16V566.812H176.431C175.806 566.812 175.33 566.971 175.003 567.288C174.686 567.605 174.527 568.156 174.527 568.94V573H172.931V565.286H174.527V566.406ZM177.772 569.108C177.772 568.333 177.931 567.647 178.248 567.05C178.575 566.453 179.013 565.991 179.564 565.664C180.124 565.328 180.74 565.16 181.412 565.16C182.019 565.16 182.546 565.281 182.994 565.524C183.451 565.757 183.815 566.051 184.086 566.406V565.286H185.696V573H184.086V571.852C183.815 572.216 183.447 572.519 182.98 572.762C182.513 573.005 181.981 573.126 181.384 573.126C180.721 573.126 180.115 572.958 179.564 572.622C179.013 572.277 178.575 571.801 178.248 571.194C177.931 570.578 177.772 569.883 177.772 569.108ZM184.086 569.136C184.086 568.604 183.974 568.142 183.75 567.75C183.535 567.358 183.251 567.059 182.896 566.854C182.541 566.649 182.159 566.546 181.748 566.546C181.337 566.546 180.955 566.649 180.6 566.854C180.245 567.05 179.956 567.344 179.732 567.736C179.517 568.119 179.41 568.576 179.41 569.108C179.41 569.64 179.517 570.107 179.732 570.508C179.956 570.909 180.245 571.217 180.6 571.432C180.964 571.637 181.347 571.74 181.748 571.74C182.159 571.74 182.541 571.637 182.896 571.432C183.251 571.227 183.535 570.928 183.75 570.536C183.974 570.135 184.086 569.668 184.086 569.136ZM189.388 566.406C189.622 566.014 189.93 565.711 190.312 565.496C190.704 565.272 191.166 565.16 191.698 565.16V566.812H191.292C190.667 566.812 190.191 566.971 189.864 567.288C189.547 567.605 189.388 568.156 189.388 568.94V573H187.792V565.286H189.388V566.406ZM196.27 569.136C196.27 568.343 196.429 567.647 196.746 567.05C197.073 566.443 197.521 565.977 198.09 565.65C198.659 565.323 199.313 565.16 200.05 565.16C200.983 565.16 201.753 565.384 202.36 565.832C202.976 566.271 203.391 566.901 203.606 567.722H201.884C201.744 567.339 201.52 567.041 201.212 566.826C200.904 566.611 200.517 566.504 200.05 566.504C199.397 566.504 198.874 566.737 198.482 567.204C198.099 567.661 197.908 568.305 197.908 569.136C197.908 569.967 198.099 570.615 198.482 571.082C198.874 571.549 199.397 571.782 200.05 571.782C200.974 571.782 201.585 571.376 201.884 570.564H203.606C203.382 571.348 202.962 571.973 202.346 572.44C201.73 572.897 200.965 573.126 200.05 573.126C199.313 573.126 198.659 572.963 198.09 572.636C197.521 572.3 197.073 571.833 196.746 571.236C196.429 570.629 196.27 569.929 196.27 569.136ZM208.542 573.126C207.814 573.126 207.156 572.963 206.568 572.636C205.98 572.3 205.518 571.833 205.182 571.236C204.846 570.629 204.678 569.929 204.678 569.136C204.678 568.352 204.851 567.657 205.196 567.05C205.542 566.443 206.013 565.977 206.61 565.65C207.208 565.323 207.875 565.16 208.612 565.16C209.35 565.16 210.017 565.323 210.614 565.65C211.212 565.977 211.683 566.443 212.028 567.05C212.374 567.657 212.546 568.352 212.546 569.136C212.546 569.92 212.369 570.615 212.014 571.222C211.66 571.829 211.174 572.3 210.558 572.636C209.952 572.963 209.28 573.126 208.542 573.126ZM208.542 571.74C208.953 571.74 209.336 571.642 209.69 571.446C210.054 571.25 210.348 570.956 210.572 570.564C210.796 570.172 210.908 569.696 210.908 569.136C210.908 568.576 210.801 568.105 210.586 567.722C210.372 567.33 210.087 567.036 209.732 566.84C209.378 566.644 208.995 566.546 208.584 566.546C208.174 566.546 207.791 566.644 207.436 566.84C207.091 567.036 206.816 567.33 206.61 567.722C206.405 568.105 206.302 568.576 206.302 569.136C206.302 569.967 206.512 570.611 206.932 571.068C207.362 571.516 207.898 571.74 208.542 571.74ZM223.462 565.16C224.069 565.16 224.61 565.286 225.086 565.538C225.572 565.79 225.95 566.163 226.22 566.658C226.5 567.153 226.64 567.75 226.64 568.45V573H225.058V568.688C225.058 567.997 224.886 567.47 224.54 567.106C224.195 566.733 223.724 566.546 223.126 566.546C222.529 566.546 222.053 566.733 221.698 567.106C221.353 567.47 221.18 567.997 221.18 568.688V573H219.598V568.688C219.598 567.997 219.426 567.47 219.08 567.106C218.735 566.733 218.264 566.546 217.666 566.546C217.069 566.546 216.593 566.733 216.238 567.106C215.893 567.47 215.72 567.997 215.72 568.688V573H214.124V565.286H215.72V566.168C215.982 565.851 216.313 565.603 216.714 565.426C217.116 565.249 217.545 565.16 218.002 565.16C218.618 565.16 219.169 565.291 219.654 565.552C220.14 565.813 220.513 566.191 220.774 566.686C221.008 566.219 221.372 565.851 221.866 565.58C222.361 565.3 222.893 565.16 223.462 565.16ZM239.35 566.07C239.098 565.585 238.748 565.221 238.3 564.978C237.852 564.726 237.334 564.6 236.746 564.6C236.102 564.6 235.528 564.745 235.024 565.034C234.52 565.323 234.123 565.734 233.834 566.266C233.554 566.798 233.414 567.414 233.414 568.114C233.414 568.814 233.554 569.435 233.834 569.976C234.123 570.508 234.52 570.919 235.024 571.208C235.528 571.497 236.102 571.642 236.746 571.642C237.614 571.642 238.318 571.399 238.86 570.914C239.401 570.429 239.732 569.771 239.854 568.94H236.2V567.666H241.562V568.912C241.459 569.668 241.188 570.363 240.75 570.998C240.32 571.633 239.756 572.141 239.056 572.524C238.365 572.897 237.595 573.084 236.746 573.084C235.831 573.084 234.996 572.874 234.24 572.454C233.484 572.025 232.882 571.432 232.434 570.676C231.995 569.92 231.776 569.066 231.776 568.114C231.776 567.162 231.995 566.308 232.434 565.552C232.882 564.796 233.484 564.208 234.24 563.788C235.005 563.359 235.84 563.144 236.746 563.144C237.782 563.144 238.701 563.401 239.504 563.914C240.316 564.418 240.904 565.137 241.268 566.07H239.35ZM246.482 573.126C245.754 573.126 245.096 572.963 244.508 572.636C243.92 572.3 243.458 571.833 243.122 571.236C242.786 570.629 242.618 569.929 242.618 569.136C242.618 568.352 242.791 567.657 243.136 567.05C243.481 566.443 243.953 565.977 244.55 565.65C245.147 565.323 245.815 565.16 246.552 565.16C247.289 565.16 247.957 565.323 248.554 565.65C249.151 565.977 249.623 566.443 249.968 567.05C250.313 567.657 250.486 568.352 250.486 569.136C250.486 569.92 250.309 570.615 249.954 571.222C249.599 571.829 249.114 572.3 248.498 572.636C247.891 572.963 247.219 573.126 246.482 573.126ZM246.482 571.74C246.893 571.74 247.275 571.642 247.63 571.446C247.994 571.25 248.288 570.956 248.512 570.564C248.736 570.172 248.848 569.696 248.848 569.136C248.848 568.576 248.741 568.105 248.526 567.722C248.311 567.33 248.027 567.036 247.672 566.84C247.317 566.644 246.935 566.546 246.524 566.546C246.113 566.546 245.731 566.644 245.376 566.84C245.031 567.036 244.755 567.33 244.55 567.722C244.345 568.105 244.242 568.576 244.242 569.136C244.242 569.967 244.452 570.611 244.872 571.068C245.301 571.516 245.838 571.74 246.482 571.74ZM255.41 573.126C254.682 573.126 254.024 572.963 253.436 572.636C252.848 572.3 252.386 571.833 252.05 571.236C251.714 570.629 251.546 569.929 251.546 569.136C251.546 568.352 251.718 567.657 252.064 567.05C252.409 566.443 252.88 565.977 253.478 565.65C254.075 565.323 254.742 565.16 255.48 565.16C256.217 565.16 256.884 565.323 257.482 565.65C258.079 565.977 258.55 566.443 258.896 567.05C259.241 567.657 259.414 568.352 259.414 569.136C259.414 569.92 259.236 570.615 258.882 571.222C258.527 571.829 258.042 572.3 257.426 572.636C256.819 572.963 256.147 573.126 255.41 573.126ZM255.41 571.74C255.82 571.74 256.203 571.642 256.558 571.446C256.922 571.25 257.216 570.956 257.44 570.564C257.664 570.172 257.776 569.696 257.776 569.136C257.776 568.576 257.668 568.105 257.454 567.722C257.239 567.33 256.954 567.036 256.6 566.84C256.245 566.644 255.862 566.546 255.452 566.546C255.041 566.546 254.658 566.644 254.304 566.84C253.958 567.036 253.683 567.33 253.478 567.722C253.272 568.105 253.17 568.576 253.17 569.136C253.17 569.967 253.38 570.611 253.8 571.068C254.229 571.516 254.766 571.74 255.41 571.74ZM264.099 565.16C264.697 565.16 265.224 565.281 265.681 565.524C266.148 565.757 266.512 566.051 266.773 566.406V565.286H268.383V573.126C268.383 573.835 268.234 574.465 267.935 575.016C267.637 575.576 267.203 576.015 266.633 576.332C266.073 576.649 265.401 576.808 264.617 576.808C263.572 576.808 262.704 576.561 262.013 576.066C261.323 575.581 260.931 574.918 260.837 574.078H262.419C262.541 574.479 262.797 574.801 263.189 575.044C263.591 575.296 264.067 575.422 264.617 575.422C265.261 575.422 265.779 575.226 266.171 574.834C266.573 574.442 266.773 573.873 266.773 573.126V571.838C266.503 572.202 266.134 572.51 265.667 572.762C265.21 573.005 264.687 573.126 264.099 573.126C263.427 573.126 262.811 572.958 262.251 572.622C261.701 572.277 261.262 571.801 260.935 571.194C260.618 570.578 260.459 569.883 260.459 569.108C260.459 568.333 260.618 567.647 260.935 567.05C261.262 566.453 261.701 565.991 262.251 565.664C262.811 565.328 263.427 565.16 264.099 565.16ZM266.773 569.136C266.773 568.604 266.661 568.142 266.437 567.75C266.223 567.358 265.938 567.059 265.583 566.854C265.229 566.649 264.846 566.546 264.435 566.546C264.025 566.546 263.642 566.649 263.287 566.854C262.933 567.05 262.643 567.344 262.419 567.736C262.205 568.119 262.097 568.576 262.097 569.108C262.097 569.64 262.205 570.107 262.419 570.508C262.643 570.909 262.933 571.217 263.287 571.432C263.651 571.637 264.034 571.74 264.435 571.74C264.846 571.74 265.229 571.637 265.583 571.432C265.938 571.227 266.223 570.928 266.437 570.536C266.661 570.135 266.773 569.668 266.773 569.136ZM272.076 562.64V573H270.48V562.64H272.076ZM281.241 568.954C281.241 569.243 281.222 569.505 281.185 569.738H275.291C275.338 570.354 275.566 570.849 275.977 571.222C276.388 571.595 276.892 571.782 277.489 571.782C278.348 571.782 278.954 571.423 279.309 570.704H281.031C280.798 571.413 280.373 571.997 279.757 572.454C279.15 572.902 278.394 573.126 277.489 573.126C276.752 573.126 276.089 572.963 275.501 572.636C274.922 572.3 274.465 571.833 274.129 571.236C273.802 570.629 273.639 569.929 273.639 569.136C273.639 568.343 273.798 567.647 274.115 567.05C274.442 566.443 274.894 565.977 275.473 565.65C276.061 565.323 276.733 565.16 277.489 565.16C278.217 565.16 278.866 565.319 279.435 565.636C280.004 565.953 280.448 566.401 280.765 566.98C281.082 567.549 281.241 568.207 281.241 568.954ZM279.575 568.45C279.566 567.862 279.356 567.391 278.945 567.036C278.534 566.681 278.026 566.504 277.419 566.504C276.868 566.504 276.397 566.681 276.005 567.036C275.613 567.381 275.38 567.853 275.305 568.45H279.575Z" fill="#363F5F"/>
<g clip-path="url(#clip0_39329_1625)">
<path d="M71.9873 568.474C71.9873 567.471 71.9057 566.738 71.729 565.979H60.239V570.508H66.9834C66.8474 571.633 66.1132 573.328 64.4814 574.467L64.4586 574.618L68.0915 577.425L68.3432 577.45C70.6547 575.321 71.9873 572.189 71.9873 568.474Z" fill="#4285F4"/>
<path d="M60.2391 580.406C63.5433 580.406 66.3172 579.321 68.3433 577.45L64.4815 574.467C63.4481 575.186 62.0611 575.687 60.2391 575.687C57.0029 575.687 54.2562 573.559 53.2771 570.616L53.1336 570.628L49.356 573.544L49.3066 573.681C51.319 577.667 55.4527 580.406 60.2391 580.406Z" fill="#34A853"/>
<path d="M53.277 570.616C53.0187 569.857 52.8692 569.043 52.8692 568.203C52.8692 567.362 53.0187 566.549 53.2634 565.789L53.2566 565.628L49.4317 562.666L49.3066 562.725C48.4772 564.379 48.0012 566.237 48.0012 568.203C48.0012 570.169 48.4772 572.026 49.3066 573.681L53.277 570.616Z" fill="#FBBC05"/>
<path d="M60.2391 560.718C62.537 560.718 64.0871 561.708 64.971 562.535L68.4248 559.173C66.3036 557.207 63.5432 556 60.2391 556C55.4527 556 51.319 558.739 49.3066 562.725L53.2635 565.789C54.2562 562.847 57.0029 560.718 60.2391 560.718Z" fill="#EB4335"/>
</g>
<path d="M116.38 458.848V460.032H111.532V463.792H115.468V464.976H111.532V470H110.076V458.848H116.38ZM117.594 465.584C117.594 464.688 117.776 463.904 118.138 463.232C118.501 462.549 118.997 462.021 119.626 461.648C120.266 461.275 120.976 461.088 121.754 461.088C122.522 461.088 123.189 461.253 123.754 461.584C124.32 461.915 124.741 462.331 125.018 462.832V461.232H126.49V470H125.018V468.368C124.73 468.88 124.298 469.307 123.722 469.648C123.157 469.979 122.496 470.144 121.738 470.144C120.96 470.144 120.256 469.952 119.626 469.568C118.997 469.184 118.501 468.645 118.138 467.952C117.776 467.259 117.594 466.469 117.594 465.584ZM125.018 465.6C125.018 464.939 124.885 464.363 124.618 463.872C124.352 463.381 123.989 463.008 123.53 462.752C123.082 462.485 122.586 462.352 122.042 462.352C121.498 462.352 121.002 462.48 120.554 462.736C120.106 462.992 119.749 463.365 119.482 463.856C119.216 464.347 119.082 464.923 119.082 465.584C119.082 466.256 119.216 466.843 119.482 467.344C119.749 467.835 120.106 468.213 120.554 468.48C121.002 468.736 121.498 468.864 122.042 468.864C122.586 468.864 123.082 468.736 123.53 468.48C123.989 468.213 124.352 467.835 124.618 467.344C124.885 466.843 125.018 466.261 125.018 465.6ZM132.679 468.912C133.319 468.912 133.852 468.763 134.279 468.464C134.705 468.165 134.999 467.739 135.159 467.184H136.727C136.513 468.016 136.092 468.699 135.463 469.232C134.844 469.755 134.065 470.053 133.127 470.128V470.928C133.756 470.917 134.257 471.051 134.631 471.328C135.004 471.605 135.191 472 135.191 472.512C135.191 473.013 135.009 473.413 134.647 473.712C134.284 474.011 133.815 474.16 133.239 474.16H131.399V473.216H132.951C133.303 473.216 133.559 473.163 133.719 473.056C133.889 472.949 133.975 472.768 133.975 472.512C133.975 472.267 133.889 472.091 133.719 471.984C133.559 471.877 133.303 471.824 132.951 471.824H132.151V470.112C131.415 470.037 130.764 469.808 130.199 469.424C129.633 469.029 129.191 468.507 128.871 467.856C128.561 467.195 128.407 466.443 128.407 465.6C128.407 464.693 128.588 463.904 128.951 463.232C129.313 462.549 129.815 462.021 130.455 461.648C131.105 461.275 131.847 461.088 132.679 461.088C133.756 461.088 134.641 461.349 135.335 461.872C136.039 462.395 136.503 463.12 136.727 464.048H135.159C135.009 463.515 134.716 463.093 134.279 462.784C133.852 462.475 133.319 462.32 132.679 462.32C131.847 462.32 131.175 462.608 130.663 463.184C130.151 463.749 129.895 464.555 129.895 465.6C129.895 466.656 130.151 467.472 130.663 468.048C131.175 468.624 131.847 468.912 132.679 468.912ZM138.126 465.584C138.126 464.688 138.307 463.904 138.67 463.232C139.032 462.549 139.528 462.021 140.158 461.648C140.798 461.275 141.507 461.088 142.286 461.088C143.054 461.088 143.72 461.253 144.286 461.584C144.851 461.915 145.272 462.331 145.55 462.832V461.232H147.022V470H145.55V468.368C145.262 468.88 144.83 469.307 144.254 469.648C143.688 469.979 143.027 470.144 142.27 470.144C141.491 470.144 140.787 469.952 140.158 469.568C139.528 469.184 139.032 468.645 138.67 467.952C138.307 467.259 138.126 466.469 138.126 465.584ZM145.55 465.6C145.55 464.939 145.416 464.363 145.15 463.872C144.883 463.381 144.52 463.008 144.062 462.752C143.614 462.485 143.118 462.352 142.574 462.352C142.03 462.352 141.534 462.48 141.086 462.736C140.638 462.992 140.28 463.365 140.014 463.856C139.747 464.347 139.614 464.923 139.614 465.584C139.614 466.256 139.747 466.843 140.014 467.344C140.28 467.835 140.638 468.213 141.086 468.48C141.534 468.736 142.03 468.864 142.574 468.864C143.118 468.864 143.614 468.736 144.062 468.48C144.52 468.213 144.883 467.835 145.15 467.344C145.416 466.843 145.55 466.261 145.55 465.6ZM156.852 470.144C156.18 470.144 155.577 470.032 155.044 469.808C154.51 469.573 154.089 469.253 153.78 468.848C153.47 468.432 153.3 467.957 153.268 467.424H154.772C154.814 467.861 155.017 468.219 155.38 468.496C155.753 468.773 156.238 468.912 156.836 468.912C157.39 468.912 157.828 468.789 158.148 468.544C158.468 468.299 158.628 467.989 158.628 467.616C158.628 467.232 158.457 466.949 158.116 466.768C157.774 466.576 157.246 466.389 156.532 466.208C155.881 466.037 155.348 465.867 154.932 465.696C154.526 465.515 154.174 465.253 153.876 464.912C153.588 464.56 153.444 464.101 153.444 463.536C153.444 463.088 153.577 462.677 153.844 462.304C154.11 461.931 154.489 461.637 154.98 461.424C155.47 461.2 156.03 461.088 156.66 461.088C157.63 461.088 158.414 461.333 159.012 461.824C159.609 462.315 159.929 462.987 159.972 463.84H158.516C158.484 463.381 158.297 463.013 157.956 462.736C157.625 462.459 157.177 462.32 156.612 462.32C156.089 462.32 155.673 462.432 155.364 462.656C155.054 462.88 154.9 463.173 154.9 463.536C154.9 463.824 154.99 464.064 155.172 464.256C155.364 464.437 155.598 464.587 155.876 464.704C156.164 464.811 156.558 464.933 157.06 465.072C157.689 465.243 158.201 465.413 158.596 465.584C158.99 465.744 159.326 465.989 159.604 466.32C159.892 466.651 160.041 467.083 160.052 467.616C160.052 468.096 159.918 468.528 159.652 468.912C159.385 469.296 159.006 469.6 158.516 469.824C158.036 470.037 157.481 470.144 156.852 470.144ZM170.107 465.28C170.107 465.557 170.091 465.851 170.059 466.16H163.051C163.104 467.024 163.398 467.701 163.931 468.192C164.475 468.672 165.131 468.912 165.899 468.912C166.528 468.912 167.051 468.768 167.467 468.48C167.894 468.181 168.192 467.787 168.363 467.296H169.931C169.696 468.139 169.227 468.827 168.523 469.36C167.819 469.883 166.944 470.144 165.899 470.144C165.067 470.144 164.32 469.957 163.659 469.584C163.008 469.211 162.496 468.683 162.123 468C161.75 467.307 161.563 466.507 161.563 465.6C161.563 464.693 161.744 463.899 162.107 463.216C162.47 462.533 162.976 462.011 163.627 461.648C164.288 461.275 165.046 461.088 165.899 461.088C166.731 461.088 167.467 461.269 168.107 461.632C168.747 461.995 169.238 462.496 169.579 463.136C169.931 463.765 170.107 464.48 170.107 465.28ZM168.603 464.976C168.603 464.421 168.48 463.947 168.235 463.552C167.99 463.147 167.654 462.843 167.227 462.64C166.811 462.427 166.347 462.32 165.835 462.32C165.099 462.32 164.47 462.555 163.947 463.024C163.435 463.493 163.142 464.144 163.067 464.976H168.603ZM179.805 461.232V470H178.349V468.704C178.072 469.152 177.682 469.504 177.181 469.76C176.69 470.005 176.146 470.128 175.549 470.128C174.866 470.128 174.253 469.989 173.709 469.712C173.165 469.424 172.733 468.997 172.413 468.432C172.104 467.867 171.949 467.179 171.949 466.368V461.232H173.389V466.176C173.389 467.04 173.608 467.707 174.045 468.176C174.482 468.635 175.08 468.864 175.837 468.864C176.616 468.864 177.229 468.624 177.677 468.144C178.125 467.664 178.349 466.965 178.349 466.048V461.232H179.805ZM187.985 458.16V470H186.529V458.16H187.985ZM194.29 470.144C193.469 470.144 192.722 469.957 192.05 469.584C191.389 469.211 190.866 468.683 190.482 468C190.109 467.307 189.922 466.507 189.922 465.6C189.922 464.704 190.114 463.915 190.498 463.232C190.893 462.539 191.426 462.011 192.098 461.648C192.77 461.275 193.522 461.088 194.354 461.088C195.186 461.088 195.938 461.275 196.61 461.648C197.282 462.011 197.81 462.533 198.194 463.216C198.589 463.899 198.786 464.693 198.786 465.6C198.786 466.507 198.584 467.307 198.178 468C197.784 468.683 197.245 469.211 196.562 469.584C195.88 469.957 195.122 470.144 194.29 470.144ZM194.29 468.864C194.813 468.864 195.304 468.741 195.762 468.496C196.221 468.251 196.589 467.883 196.866 467.392C197.154 466.901 197.298 466.304 197.298 465.6C197.298 464.896 197.16 464.299 196.882 463.808C196.605 463.317 196.242 462.955 195.794 462.72C195.346 462.475 194.861 462.352 194.338 462.352C193.805 462.352 193.314 462.475 192.866 462.72C192.429 462.955 192.077 463.317 191.81 463.808C191.544 464.299 191.41 464.896 191.41 465.6C191.41 466.315 191.538 466.917 191.794 467.408C192.061 467.899 192.413 468.267 192.85 468.512C193.288 468.747 193.768 468.864 194.29 468.864ZM204.317 461.088C205.074 461.088 205.735 461.253 206.301 461.584C206.877 461.915 207.303 462.331 207.581 462.832V461.232H209.053V470.192C209.053 470.992 208.882 471.701 208.541 472.32C208.199 472.949 207.709 473.44 207.069 473.792C206.439 474.144 205.703 474.32 204.861 474.32C203.709 474.32 202.749 474.048 201.981 473.504C201.213 472.96 200.759 472.219 200.621 471.28H202.061C202.221 471.813 202.551 472.24 203.053 472.56C203.554 472.891 204.157 473.056 204.861 473.056C205.661 473.056 206.311 472.805 206.813 472.304C207.325 471.803 207.581 471.099 207.581 470.192V468.352C207.293 468.864 206.866 469.291 206.301 469.632C205.735 469.973 205.074 470.144 204.317 470.144C203.538 470.144 202.829 469.952 202.189 469.568C201.559 469.184 201.063 468.645 200.701 467.952C200.338 467.259 200.157 466.469 200.157 465.584C200.157 464.688 200.338 463.904 200.701 463.232C201.063 462.549 201.559 462.021 202.189 461.648C202.829 461.275 203.538 461.088 204.317 461.088ZM207.581 465.6C207.581 464.939 207.447 464.363 207.181 463.872C206.914 463.381 206.551 463.008 206.093 462.752C205.645 462.485 205.149 462.352 204.605 462.352C204.061 462.352 203.565 462.48 203.117 462.736C202.669 462.992 202.311 463.365 202.045 463.856C201.778 464.347 201.645 464.923 201.645 465.584C201.645 466.256 201.778 466.843 202.045 467.344C202.311 467.835 202.669 468.213 203.117 468.48C203.565 468.736 204.061 468.864 204.605 468.864C205.149 468.864 205.645 468.736 206.093 468.48C206.551 468.213 206.914 467.835 207.181 467.344C207.447 466.843 207.581 466.261 207.581 465.6ZM212.265 459.808C211.988 459.808 211.753 459.712 211.561 459.52C211.369 459.328 211.273 459.093 211.273 458.816C211.273 458.539 211.369 458.304 211.561 458.112C211.753 457.92 211.988 457.824 212.265 457.824C212.532 457.824 212.756 457.92 212.937 458.112C213.129 458.304 213.225 458.539 213.225 458.816C213.225 459.093 213.129 459.328 212.937 459.52C212.756 459.712 212.532 459.808 212.265 459.808ZM212.969 461.232V470H211.513V461.232H212.969ZM219.723 461.072C220.789 461.072 221.653 461.397 222.315 462.048C222.976 462.688 223.307 463.616 223.307 464.832V470H221.867V465.04C221.867 464.165 221.648 463.499 221.211 463.04C220.773 462.571 220.176 462.336 219.419 462.336C218.651 462.336 218.037 462.576 217.579 463.056C217.131 463.536 216.907 464.235 216.907 465.152V470H215.451V461.232H216.907V462.48C217.195 462.032 217.584 461.685 218.075 461.44C218.576 461.195 219.125 461.072 219.723 461.072ZM229.407 465.6C229.407 464.693 229.588 463.904 229.951 463.232C230.313 462.549 230.815 462.021 231.455 461.648C232.105 461.275 232.847 461.088 233.679 461.088C234.756 461.088 235.641 461.349 236.335 461.872C237.039 462.395 237.503 463.12 237.727 464.048H236.159C236.009 463.515 235.716 463.093 235.279 462.784C234.852 462.475 234.319 462.32 233.679 462.32C232.847 462.32 232.175 462.608 231.663 463.184C231.151 463.749 230.895 464.555 230.895 465.6C230.895 466.656 231.151 467.472 231.663 468.048C232.175 468.624 232.847 468.912 233.679 468.912C234.319 468.912 234.852 468.763 235.279 468.464C235.705 468.165 235.999 467.739 236.159 467.184H237.727C237.492 468.08 237.023 468.8 236.319 469.344C235.615 469.877 234.735 470.144 233.679 470.144C232.847 470.144 232.105 469.957 231.455 469.584C230.815 469.211 230.313 468.683 229.951 468C229.588 467.317 229.407 466.517 229.407 465.6ZM243.494 470.144C242.672 470.144 241.926 469.957 241.254 469.584C240.592 469.211 240.07 468.683 239.686 468C239.312 467.307 239.126 466.507 239.126 465.6C239.126 464.704 239.318 463.915 239.702 463.232C240.096 462.539 240.63 462.011 241.302 461.648C241.974 461.275 242.726 461.088 243.558 461.088C244.39 461.088 245.142 461.275 245.814 461.648C246.486 462.011 247.014 462.533 247.398 463.216C247.792 463.899 247.99 464.693 247.99 465.6C247.99 466.507 247.787 467.307 247.382 468C246.987 468.683 246.448 469.211 245.766 469.584C245.083 469.957 244.326 470.144 243.494 470.144ZM243.494 468.864C244.016 468.864 244.507 468.741 244.966 468.496C245.424 468.251 245.792 467.883 246.07 467.392C246.358 466.901 246.502 466.304 246.502 465.6C246.502 464.896 246.363 464.299 246.086 463.808C245.808 463.317 245.446 462.955 244.998 462.72C244.55 462.475 244.064 462.352 243.542 462.352C243.008 462.352 242.518 462.475 242.07 462.72C241.632 462.955 241.28 463.317 241.014 463.808C240.747 464.299 240.614 464.896 240.614 465.6C240.614 466.315 240.742 466.917 240.998 467.408C241.264 467.899 241.616 468.267 242.054 468.512C242.491 468.747 242.971 468.864 243.494 468.864ZM260.448 461.072C261.131 461.072 261.739 461.216 262.272 461.504C262.805 461.781 263.227 462.203 263.536 462.768C263.845 463.333 264 464.021 264 464.832V470H262.56V465.04C262.56 464.165 262.341 463.499 261.904 463.04C261.477 462.571 260.896 462.336 260.16 462.336C259.403 462.336 258.8 462.581 258.352 463.072C257.904 463.552 257.68 464.251 257.68 465.168V470H256.24V465.04C256.24 464.165 256.021 463.499 255.584 463.04C255.157 462.571 254.576 462.336 253.84 462.336C253.083 462.336 252.48 462.581 252.032 463.072C251.584 463.552 251.36 464.251 251.36 465.168V470H249.904V461.232H251.36V462.496C251.648 462.037 252.032 461.685 252.512 461.44C253.003 461.195 253.541 461.072 254.128 461.072C254.864 461.072 255.515 461.237 256.08 461.568C256.645 461.899 257.067 462.384 257.344 463.024C257.589 462.405 257.995 461.925 258.56 461.584C259.125 461.243 259.755 461.072 260.448 461.072ZM101.125 485.232V494H99.6692V492.704C99.3919 493.152 99.0025 493.504 98.5012 493.76C98.0105 494.005 97.4665 494.128 96.8692 494.128C96.1865 494.128 95.5732 493.989 95.0292 493.712C94.4852 493.424 94.0532 492.997 93.7332 492.432C93.4239 491.867 93.2692 491.179 93.2692 490.368V485.232H94.7092V490.176C94.7092 491.04 94.9279 491.707 95.3652 492.176C95.8025 492.635 96.3999 492.864 97.1572 492.864C97.9359 492.864 98.5492 492.624 98.9972 492.144C99.4452 491.664 99.6692 490.965 99.6692 490.048V485.232H101.125ZM114.128 485.072C114.81 485.072 115.418 485.216 115.952 485.504C116.485 485.781 116.906 486.203 117.216 486.768C117.525 487.333 117.68 488.021 117.68 488.832V494H116.24V489.04C116.24 488.165 116.021 487.499 115.584 487.04C115.157 486.571 114.576 486.336 113.84 486.336C113.082 486.336 112.48 486.581 112.032 487.072C111.584 487.552 111.36 488.251 111.36 489.168V494H109.92V489.04C109.92 488.165 109.701 487.499 109.264 487.04C108.837 486.571 108.256 486.336 107.52 486.336C106.762 486.336 106.16 486.581 105.712 487.072C105.264 487.552 105.04 488.251 105.04 489.168V494H103.584V485.232H105.04V486.496C105.328 486.037 105.712 485.685 106.192 485.44C106.682 485.195 107.221 485.072 107.808 485.072C108.544 485.072 109.194 485.237 109.76 485.568C110.325 485.899 110.746 486.384 111.024 487.024C111.269 486.405 111.674 485.925 112.24 485.584C112.805 485.243 113.434 485.072 114.128 485.072ZM119.524 489.584C119.524 488.688 119.705 487.904 120.068 487.232C120.431 486.549 120.927 486.021 121.556 485.648C122.196 485.275 122.905 485.088 123.684 485.088C124.452 485.088 125.119 485.253 125.684 485.584C126.249 485.915 126.671 486.331 126.948 486.832V485.232H128.42V494H126.948V492.368C126.66 492.88 126.228 493.307 125.652 493.648C125.087 493.979 124.425 494.144 123.668 494.144C122.889 494.144 122.185 493.952 121.556 493.568C120.927 493.184 120.431 492.645 120.068 491.952C119.705 491.259 119.524 490.469 119.524 489.584ZM126.948 489.6C126.948 488.939 126.815 488.363 126.548 487.872C126.281 487.381 125.919 487.008 125.46 486.752C125.012 486.485 124.516 486.352 123.972 486.352C123.428 486.352 122.932 486.48 122.484 486.736C122.036 486.992 121.679 487.365 121.412 487.856C121.145 488.347 121.012 488.923 121.012 489.584C121.012 490.256 121.145 490.843 121.412 491.344C121.679 491.835 122.036 492.213 122.484 492.48C122.932 492.736 123.428 492.864 123.972 492.864C124.516 492.864 125.012 492.736 125.46 492.48C125.919 492.213 126.281 491.835 126.548 491.344C126.815 490.843 126.948 490.261 126.948 489.6ZM134.602 489.584C134.602 488.688 134.783 487.904 135.146 487.232C135.509 486.549 136.005 486.021 136.634 485.648C137.274 485.275 137.989 485.088 138.778 485.088C139.461 485.088 140.095 485.248 140.682 485.568C141.269 485.877 141.717 486.288 142.026 486.8V482.16H143.498V494H142.026V492.352C141.738 492.875 141.311 493.307 140.746 493.648C140.181 493.979 139.519 494.144 138.762 494.144C137.983 494.144 137.274 493.952 136.634 493.568C136.005 493.184 135.509 492.645 135.146 491.952C134.783 491.259 134.602 490.469 134.602 489.584ZM142.026 489.6C142.026 488.939 141.893 488.363 141.626 487.872C141.359 487.381 140.997 487.008 140.538 486.752C140.09 486.485 139.594 486.352 139.05 486.352C138.506 486.352 138.01 486.48 137.562 486.736C137.114 486.992 136.757 487.365 136.49 487.856C136.223 488.347 136.09 488.923 136.09 489.584C136.09 490.256 136.223 490.843 136.49 491.344C136.757 491.835 137.114 492.213 137.562 492.48C138.01 492.736 138.506 492.864 139.05 492.864C139.594 492.864 140.09 492.736 140.538 492.48C140.997 492.213 141.359 491.835 141.626 491.344C141.893 490.843 142.026 490.261 142.026 489.6ZM145.415 489.584C145.415 488.688 145.596 487.904 145.959 487.232C146.321 486.549 146.817 486.021 147.447 485.648C148.087 485.275 148.796 485.088 149.575 485.088C150.343 485.088 151.009 485.253 151.575 485.584C152.14 485.915 152.561 486.331 152.839 486.832V485.232H154.311V494H152.839V492.368C152.551 492.88 152.119 493.307 151.543 493.648C150.977 493.979 150.316 494.144 149.559 494.144C148.78 494.144 148.076 493.952 147.447 493.568C146.817 493.184 146.321 492.645 145.959 491.952C145.596 491.259 145.415 490.469 145.415 489.584ZM152.839 489.6C152.839 488.939 152.705 488.363 152.439 487.872C152.172 487.381 151.809 487.008 151.351 486.752C150.903 486.485 150.407 486.352 149.863 486.352C149.319 486.352 148.823 486.48 148.375 486.736C147.927 486.992 147.569 487.365 147.303 487.856C147.036 488.347 146.903 488.923 146.903 489.584C146.903 490.256 147.036 490.843 147.303 491.344C147.569 491.835 147.927 492.213 148.375 492.48C148.823 492.736 149.319 492.864 149.863 492.864C150.407 492.864 150.903 492.736 151.351 492.48C151.809 492.213 152.172 491.835 152.439 491.344C152.705 490.843 152.839 490.261 152.839 489.6ZM159.875 494.144C159.203 494.144 158.6 494.032 158.067 493.808C157.534 493.573 157.112 493.253 156.803 492.848C156.494 492.432 156.323 491.957 156.291 491.424H157.795C157.838 491.861 158.04 492.219 158.403 492.496C158.776 492.773 159.262 492.912 159.859 492.912C160.414 492.912 160.851 492.789 161.171 492.544C161.491 492.299 161.651 491.989 161.651 491.616C161.651 491.232 161.48 490.949 161.139 490.768C160.798 490.576 160.27 490.389 159.555 490.208C158.904 490.037 158.371 489.867 157.955 489.696C157.55 489.515 157.198 489.253 156.899 488.912C156.611 488.56 156.467 488.101 156.467 487.536C156.467 487.088 156.6 486.677 156.867 486.304C157.134 485.931 157.512 485.637 158.003 485.424C158.494 485.2 159.054 485.088 159.683 485.088C160.654 485.088 161.438 485.333 162.035 485.824C162.632 486.315 162.952 486.987 162.995 487.84H161.539C161.507 487.381 161.32 487.013 160.979 486.736C160.648 486.459 160.2 486.32 159.635 486.32C159.112 486.32 158.696 486.432 158.387 486.656C158.078 486.88 157.923 487.173 157.923 487.536C157.923 487.824 158.014 488.064 158.195 488.256C158.387 488.437 158.622 488.587 158.899 488.704C159.187 488.811 159.582 488.933 160.083 489.072C160.712 489.243 161.224 489.413 161.619 489.584C162.014 489.744 162.35 489.989 162.627 490.32C162.915 490.651 163.064 491.083 163.075 491.616C163.075 492.096 162.942 492.528 162.675 492.912C162.408 493.296 162.03 493.6 161.539 493.824C161.059 494.037 160.504 494.144 159.875 494.144ZM168.852 489.6C168.852 488.693 169.033 487.904 169.396 487.232C169.759 486.549 170.26 486.021 170.9 485.648C171.551 485.275 172.292 485.088 173.124 485.088C174.201 485.088 175.087 485.349 175.78 485.872C176.484 486.395 176.948 487.12 177.172 488.048H175.604C175.455 487.515 175.161 487.093 174.724 486.784C174.297 486.475 173.764 486.32 173.124 486.32C172.292 486.32 171.62 486.608 171.108 487.184C170.596 487.749 170.34 488.555 170.34 489.6C170.34 490.656 170.596 491.472 171.108 492.048C171.62 492.624 172.292 492.912 173.124 492.912C173.764 492.912 174.297 492.763 174.724 492.464C175.151 492.165 175.444 491.739 175.604 491.184H177.172C176.937 492.08 176.468 492.8 175.764 493.344C175.06 493.877 174.18 494.144 173.124 494.144C172.292 494.144 171.551 493.957 170.9 493.584C170.26 493.211 169.759 492.683 169.396 492C169.033 491.317 168.852 490.517 168.852 489.6ZM182.939 494.144C182.117 494.144 181.371 493.957 180.699 493.584C180.037 493.211 179.515 492.683 179.131 492C178.757 491.307 178.571 490.507 178.571 489.6C178.571 488.704 178.763 487.915 179.147 487.232C179.541 486.539 180.075 486.011 180.747 485.648C181.419 485.275 182.171 485.088 183.003 485.088C183.835 485.088 184.587 485.275 185.259 485.648C185.931 486.011 186.459 486.533 186.843 487.216C187.237 487.899 187.435 488.693 187.435 489.6C187.435 490.507 187.232 491.307 186.827 492C186.432 492.683 185.893 493.211 185.211 493.584C184.528 493.957 183.771 494.144 182.939 494.144ZM182.939 492.864C183.461 492.864 183.952 492.741 184.411 492.496C184.869 492.251 185.237 491.883 185.515 491.392C185.803 490.901 185.947 490.304 185.947 489.6C185.947 488.896 185.808 488.299 185.531 487.808C185.253 487.317 184.891 486.955 184.443 486.72C183.995 486.475 183.509 486.352 182.987 486.352C182.453 486.352 181.963 486.475 181.515 486.72C181.077 486.955 180.725 487.317 180.459 487.808C180.192 488.299 180.059 488.896 180.059 489.6C180.059 490.315 180.187 490.917 180.443 491.408C180.709 491.899 181.061 492.267 181.499 492.512C181.936 492.747 182.416 492.864 182.939 492.864ZM193.621 485.072C194.688 485.072 195.552 485.397 196.213 486.048C196.875 486.688 197.205 487.616 197.205 488.832V494H195.765V489.04C195.765 488.165 195.547 487.499 195.109 487.04C194.672 486.571 194.075 486.336 193.317 486.336C192.549 486.336 191.936 486.576 191.477 487.056C191.029 487.536 190.805 488.235 190.805 489.152V494H189.349V485.232H190.805V486.48C191.093 486.032 191.483 485.685 191.973 485.44C192.475 485.195 193.024 485.072 193.621 485.072ZM201.36 486.432V491.6C201.36 492.027 201.45 492.331 201.632 492.512C201.813 492.683 202.128 492.768 202.576 492.768H203.648V494H202.336C201.525 494 200.917 493.813 200.512 493.44C200.106 493.067 199.904 492.453 199.904 491.6V486.432H198.768V485.232H199.904V483.024H201.36V485.232H203.648V486.432H201.36ZM204.868 489.584C204.868 488.688 205.049 487.904 205.412 487.232C205.774 486.549 206.27 486.021 206.9 485.648C207.54 485.275 208.249 485.088 209.028 485.088C209.796 485.088 210.462 485.253 211.028 485.584C211.593 485.915 212.014 486.331 212.292 486.832V485.232H213.764V494H212.292V492.368C212.004 492.88 211.572 493.307 210.996 493.648C210.43 493.979 209.769 494.144 209.012 494.144C208.233 494.144 207.529 493.952 206.9 493.568C206.27 493.184 205.774 492.645 205.412 491.952C205.049 491.259 204.868 490.469 204.868 489.584ZM212.292 489.6C212.292 488.939 212.158 488.363 211.892 487.872C211.625 487.381 211.262 487.008 210.804 486.752C210.356 486.485 209.86 486.352 209.316 486.352C208.772 486.352 208.276 486.48 207.828 486.736C207.38 486.992 207.022 487.365 206.756 487.856C206.489 488.347 206.356 488.923 206.356 489.584C206.356 490.256 206.489 490.843 206.756 491.344C207.022 491.835 207.38 492.213 207.828 492.48C208.276 492.736 208.772 492.864 209.316 492.864C209.86 492.864 210.356 492.736 210.804 492.48C211.262 492.213 211.625 491.835 211.892 491.344C212.158 490.843 212.292 490.261 212.292 489.6ZM219.328 494.144C218.656 494.144 218.054 494.032 217.52 493.808C216.987 493.573 216.566 493.253 216.256 492.848C215.947 492.432 215.776 491.957 215.744 491.424H217.248C217.291 491.861 217.494 492.219 217.856 492.496C218.23 492.773 218.715 492.912 219.312 492.912C219.867 492.912 220.304 492.789 220.624 492.544C220.944 492.299 221.104 491.989 221.104 491.616C221.104 491.232 220.934 490.949 220.592 490.768C220.251 490.576 219.723 490.389 219.008 490.208C218.358 490.037 217.824 489.867 217.408 489.696C217.003 489.515 216.651 489.253 216.352 488.912C216.064 488.56 215.92 488.101 215.92 487.536C215.92 487.088 216.054 486.677 216.32 486.304C216.587 485.931 216.966 485.637 217.456 485.424C217.947 485.2 218.507 485.088 219.136 485.088C220.107 485.088 220.891 485.333 221.488 485.824C222.086 486.315 222.406 486.987 222.448 487.84H220.992C220.96 487.381 220.774 487.013 220.432 486.736C220.102 486.459 219.654 486.32 219.088 486.32C218.566 486.32 218.15 486.432 217.84 486.656C217.531 486.88 217.376 487.173 217.376 487.536C217.376 487.824 217.467 488.064 217.648 488.256C217.84 488.437 218.075 488.587 218.352 488.704C218.64 488.811 219.035 488.933 219.536 489.072C220.166 489.243 220.678 489.413 221.072 489.584C221.467 489.744 221.803 489.989 222.08 490.32C222.368 490.651 222.518 491.083 222.528 491.616C222.528 492.096 222.395 492.528 222.128 492.912C221.862 493.296 221.483 493.6 220.992 493.824C220.512 494.037 219.958 494.144 219.328 494.144ZM228.305 489.584C228.305 488.688 228.487 487.904 228.849 487.232C229.212 486.549 229.708 486.021 230.337 485.648C230.977 485.275 231.687 485.088 232.465 485.088C233.233 485.088 233.9 485.253 234.465 485.584C235.031 485.915 235.452 486.331 235.729 486.832V485.232H237.201V494H235.729V492.368C235.441 492.88 235.009 493.307 234.433 493.648C233.868 493.979 233.207 494.144 232.449 494.144C231.671 494.144 230.967 493.952 230.337 493.568C229.708 493.184 229.212 492.645 228.849 491.952C228.487 491.259 228.305 490.469 228.305 489.584ZM235.729 489.6C235.729 488.939 235.596 488.363 235.329 487.872C235.063 487.381 234.7 487.008 234.241 486.752C233.793 486.485 233.297 486.352 232.753 486.352C232.209 486.352 231.713 486.48 231.265 486.736C230.817 486.992 230.46 487.365 230.193 487.856C229.927 488.347 229.793 488.923 229.793 489.584C229.793 490.256 229.927 490.843 230.193 491.344C230.46 491.835 230.817 492.213 231.265 492.48C231.713 492.736 232.209 492.864 232.753 492.864C233.297 492.864 233.793 492.736 234.241 492.48C234.7 492.213 235.063 491.835 235.329 491.344C235.596 490.843 235.729 490.261 235.729 489.6ZM241.118 486.864C241.416 486.341 241.854 485.915 242.43 485.584C243.006 485.253 243.662 485.088 244.398 485.088C245.187 485.088 245.896 485.275 246.526 485.648C247.155 486.021 247.651 486.549 248.014 487.232C248.376 487.904 248.558 488.688 248.558 489.584C248.558 490.469 248.376 491.259 248.014 491.952C247.651 492.645 247.15 493.184 246.51 493.568C245.88 493.952 245.176 494.144 244.398 494.144C243.64 494.144 242.974 493.979 242.398 493.648C241.832 493.317 241.406 492.896 241.118 492.384V494H239.662V482.16H241.118V486.864ZM247.07 489.584C247.07 488.923 246.936 488.347 246.67 487.856C246.403 487.365 246.04 486.992 245.582 486.736C245.134 486.48 244.638 486.352 244.094 486.352C243.56 486.352 243.064 486.485 242.606 486.752C242.158 487.008 241.795 487.387 241.518 487.888C241.251 488.379 241.118 488.949 241.118 489.6C241.118 490.261 241.251 490.843 241.518 491.344C241.795 491.835 242.158 492.213 242.606 492.48C243.064 492.736 243.56 492.864 244.094 492.864C244.638 492.864 245.134 492.736 245.582 492.48C246.04 492.213 246.403 491.835 246.67 491.344C246.936 490.843 247.07 490.256 247.07 489.584ZM249.93 489.584C249.93 488.688 250.112 487.904 250.474 487.232C250.837 486.549 251.333 486.021 251.962 485.648C252.602 485.275 253.312 485.088 254.09 485.088C254.858 485.088 255.525 485.253 256.09 485.584C256.656 485.915 257.077 486.331 257.354 486.832V485.232H258.826V494H257.354V492.368C257.066 492.88 256.634 493.307 256.058 493.648C255.493 493.979 254.832 494.144 254.074 494.144C253.296 494.144 252.592 493.952 251.962 493.568C251.333 493.184 250.837 492.645 250.474 491.952C250.112 491.259 249.93 490.469 249.93 489.584ZM257.354 489.6C257.354 488.939 257.221 488.363 256.954 487.872C256.688 487.381 256.325 487.008 255.866 486.752C255.418 486.485 254.922 486.352 254.378 486.352C253.834 486.352 253.338 486.48 252.89 486.736C252.442 486.992 252.085 487.365 251.818 487.856C251.552 488.347 251.418 488.923 251.418 489.584C251.418 490.256 251.552 490.843 251.818 491.344C252.085 491.835 252.442 492.213 252.89 492.48C253.338 492.736 253.834 492.864 254.378 492.864C254.922 492.864 255.418 492.736 255.866 492.48C256.325 492.213 256.688 491.835 256.954 491.344C257.221 490.843 257.354 490.261 257.354 489.6ZM262.039 483.808C261.761 483.808 261.527 483.712 261.335 483.52C261.143 483.328 261.047 483.093 261.047 482.816C261.047 482.539 261.143 482.304 261.335 482.112C261.527 481.92 261.761 481.824 262.039 481.824C262.305 481.824 262.529 481.92 262.711 482.112C262.903 482.304 262.999 482.539 262.999 482.816C262.999 483.093 262.903 483.328 262.711 483.52C262.529 483.712 262.305 483.808 262.039 483.808ZM262.743 485.232V494H261.287V485.232H262.743ZM269.8 494L267.72 490.736L265.72 494H264.2L267.032 489.648L264.2 485.232H265.848L267.928 488.48L269.912 485.232H271.432L268.616 489.568L271.448 494H269.8ZM276.704 494.144C275.883 494.144 275.136 493.957 274.464 493.584C273.803 493.211 273.28 492.683 272.896 492C272.523 491.307 272.336 490.507 272.336 489.6C272.336 488.704 272.528 487.915 272.912 487.232C273.307 486.539 273.84 486.011 274.512 485.648C275.184 485.275 275.936 485.088 276.768 485.088C277.6 485.088 278.352 485.275 279.024 485.648C279.696 486.011 280.224 486.533 280.608 487.216C281.003 487.899 281.2 488.693 281.2 489.6C281.2 490.507 280.998 491.307 280.592 492C280.198 492.683 279.659 493.211 278.976 493.584C278.294 493.957 277.536 494.144 276.704 494.144ZM276.704 492.864C277.227 492.864 277.718 492.741 278.176 492.496C278.635 492.251 279.003 491.883 279.28 491.392C279.568 490.901 279.712 490.304 279.712 489.6C279.712 488.896 279.574 488.299 279.296 487.808C279.019 487.317 278.656 486.955 278.208 486.72C277.76 486.475 277.275 486.352 276.752 486.352C276.219 486.352 275.728 486.475 275.28 486.72C274.843 486.955 274.491 487.317 274.224 487.808C273.958 488.299 273.824 488.896 273.824 489.6C273.824 490.315 273.952 490.917 274.208 491.408C274.475 491.899 274.827 492.267 275.264 492.512C275.702 492.747 276.182 492.864 276.704 492.864Z" fill="white"/>
<path d="M82.7565 318.53C82.7565 316.49 83.2265 314.66 84.1665 313.04C85.1265 311.42 86.4165 310.16 88.0365 309.26C89.6765 308.34 91.4665 307.88 93.4065 307.88C95.6265 307.88 97.5965 308.43 99.3165 309.53C101.056 310.61 102.316 312.15 103.096 314.15H98.9865C98.4465 313.05 97.6965 312.23 96.7365 311.69C95.7765 311.15 94.6665 310.88 93.4065 310.88C92.0265 310.88 90.7965 311.19 89.7165 311.81C88.6365 312.43 87.7865 313.32 87.1665 314.48C86.5665 315.64 86.2665 316.99 86.2665 318.53C86.2665 320.07 86.5665 321.42 87.1665 322.58C87.7865 323.74 88.6365 324.64 89.7165 325.28C90.7965 325.9 92.0265 326.21 93.4065 326.21C94.6665 326.21 95.7765 325.94 96.7365 325.4C97.6965 324.86 98.4465 324.04 98.9865 322.94H103.096C102.316 324.94 101.056 326.48 99.3165 327.56C97.5965 328.64 95.6265 329.18 93.4065 329.18C91.4465 329.18 89.6565 328.73 88.0365 327.83C86.4165 326.91 85.1265 325.64 84.1665 324.02C83.2265 322.4 82.7565 320.57 82.7565 318.53ZM114.27 329.27C112.71 329.27 111.3 328.92 110.04 328.22C108.78 327.5 107.79 326.5 107.07 325.22C106.35 323.92 105.99 322.42 105.99 320.72C105.99 319.04 106.36 317.55 107.1 316.25C107.84 314.95 108.85 313.95 110.13 313.25C111.41 312.55 112.84 312.2 114.42 312.2C116 312.2 117.43 312.55 118.71 313.25C119.99 313.95 121 314.95 121.74 316.25C122.48 317.55 122.85 319.04 122.85 320.72C122.85 322.4 122.47 323.89 121.71 325.19C120.95 326.49 119.91 327.5 118.59 328.22C117.29 328.92 115.85 329.27 114.27 329.27ZM114.27 326.3C115.15 326.3 115.97 326.09 116.73 325.67C117.51 325.25 118.14 324.62 118.62 323.78C119.1 322.94 119.34 321.92 119.34 320.72C119.34 319.52 119.11 318.51 118.65 317.69C118.19 316.85 117.58 316.22 116.82 315.8C116.06 315.38 115.24 315.17 114.36 315.17C113.48 315.17 112.66 315.38 111.9 315.8C111.16 316.22 110.57 316.85 110.13 317.69C109.69 318.51 109.47 319.52 109.47 320.72C109.47 322.5 109.92 323.88 110.82 324.86C111.74 325.82 112.89 326.3 114.27 326.3ZM134.57 312.2C135.87 312.2 137.03 312.47 138.05 313.01C139.09 313.55 139.9 314.35 140.48 315.41C141.06 316.47 141.35 317.75 141.35 319.25V329H137.96V319.76C137.96 318.28 137.59 317.15 136.85 316.37C136.11 315.57 135.1 315.17 133.82 315.17C132.54 315.17 131.52 315.57 130.76 316.37C130.02 317.15 129.65 318.28 129.65 319.76V329H126.23V312.47H129.65V314.36C130.21 313.68 130.92 313.15 131.78 312.77C132.66 312.39 133.59 312.2 134.57 312.2ZM149.703 315.26V324.41C149.703 325.03 149.843 325.48 150.123 325.76C150.423 326.02 150.923 326.15 151.623 326.15H153.723V329H151.023C149.483 329 148.303 328.64 147.483 327.92C146.663 327.2 146.253 326.03 146.253 324.41V315.26H144.303V312.47H146.253V308.36H149.703V312.47H153.723V315.26H149.703ZM160.295 314.87C160.795 314.03 161.455 313.38 162.275 312.92C163.115 312.44 164.105 312.2 165.245 312.2V315.74H164.375C163.035 315.74 162.015 316.08 161.315 316.76C160.635 317.44 160.295 318.62 160.295 320.3V329H156.875V312.47H160.295V314.87ZM175.559 329.27C173.999 329.27 172.589 328.92 171.329 328.22C170.069 327.5 169.079 326.5 168.359 325.22C167.639 323.92 167.279 322.42 167.279 320.72C167.279 319.04 167.649 317.55 168.389 316.25C169.129 314.95 170.139 313.95 171.419 313.25C172.699 312.55 174.129 312.2 175.709 312.2C177.289 312.2 178.719 312.55 179.999 313.25C181.279 313.95 182.289 314.95 183.029 316.25C183.769 317.55 184.139 319.04 184.139 320.72C184.139 322.4 183.759 323.89 182.999 325.19C182.239 326.49 181.199 327.5 179.879 328.22C178.579 328.92 177.139 329.27 175.559 329.27ZM175.559 326.3C176.439 326.3 177.259 326.09 178.019 325.67C178.799 325.25 179.429 324.62 179.909 323.78C180.389 322.94 180.629 321.92 180.629 320.72C180.629 319.52 180.399 318.51 179.939 317.69C179.479 316.85 178.869 316.22 178.109 315.8C177.349 315.38 176.529 315.17 175.649 315.17C174.769 315.17 173.949 315.38 173.189 315.8C172.449 316.22 171.859 316.85 171.419 317.69C170.979 318.51 170.759 319.52 170.759 320.72C170.759 322.5 171.209 323.88 172.109 324.86C173.029 325.82 174.179 326.3 175.559 326.3ZM190.94 306.8V329H187.52V306.8H190.94ZM210.58 320.33C210.58 320.95 210.54 321.51 210.46 322.01H197.83C197.93 323.33 198.42 324.39 199.3 325.19C200.18 325.99 201.26 326.39 202.54 326.39C204.38 326.39 205.68 325.62 206.44 324.08H210.13C209.63 325.6 208.72 326.85 207.4 327.83C206.1 328.79 204.48 329.27 202.54 329.27C200.96 329.27 199.54 328.92 198.28 328.22C197.04 327.5 196.06 326.5 195.34 325.22C194.64 323.92 194.29 322.42 194.29 320.72C194.29 319.02 194.63 317.53 195.31 316.25C196.01 314.95 196.98 313.95 198.22 313.25C199.48 312.55 200.92 312.2 202.54 312.2C204.1 312.2 205.49 312.54 206.71 313.22C207.93 313.9 208.88 314.86 209.56 316.1C210.24 317.32 210.58 318.73 210.58 320.33ZM207.01 319.25C206.99 317.99 206.54 316.98 205.66 316.22C204.78 315.46 203.69 315.08 202.39 315.08C201.21 315.08 200.2 315.46 199.36 316.22C198.52 316.96 198.02 317.97 197.86 319.25H207.01ZM227.738 329.27C226.438 329.27 225.268 329.04 224.228 328.58C223.208 328.1 222.398 327.46 221.798 326.66C221.198 325.84 220.878 324.93 220.838 323.93H224.378C224.438 324.63 224.768 325.22 225.368 325.7C225.988 326.16 226.758 326.39 227.678 326.39C228.638 326.39 229.378 326.21 229.898 325.85C230.438 325.47 230.708 324.99 230.708 324.41C230.708 323.79 230.408 323.33 229.808 323.03C229.228 322.73 228.298 322.4 227.018 322.04C225.778 321.7 224.768 321.37 223.988 321.05C223.208 320.73 222.528 320.24 221.948 319.58C221.388 318.92 221.108 318.05 221.108 316.97C221.108 316.09 221.368 315.29 221.888 314.57C222.408 313.83 223.148 313.25 224.108 312.83C225.088 312.41 226.208 312.2 227.468 312.2C229.348 312.2 230.858 312.68 231.998 313.64C233.158 314.58 233.778 315.87 233.858 317.51H230.438C230.378 316.77 230.078 316.18 229.538 315.74C228.998 315.3 228.268 315.08 227.348 315.08C226.448 315.08 225.758 315.25 225.278 315.59C224.798 315.93 224.558 316.38 224.558 316.94C224.558 317.38 224.718 317.75 225.038 318.05C225.358 318.35 225.748 318.59 226.208 318.77C226.668 318.93 227.348 319.14 228.248 319.4C229.448 319.72 230.428 320.05 231.188 320.39C231.968 320.71 232.638 321.19 233.198 321.83C233.758 322.47 234.048 323.32 234.068 324.38C234.068 325.32 233.808 326.16 233.288 326.9C232.768 327.64 232.028 328.22 231.068 328.64C230.128 329.06 229.018 329.27 227.738 329.27ZM252.734 312.47V329H249.314V327.05C248.774 327.73 248.064 328.27 247.184 328.67C246.324 329.05 245.404 329.24 244.424 329.24C243.124 329.24 241.954 328.97 240.914 328.43C239.894 327.89 239.084 327.09 238.484 326.03C237.904 324.97 237.614 323.69 237.614 322.19V312.47H241.004V321.68C241.004 323.16 241.374 324.3 242.114 325.1C242.854 325.88 243.864 326.27 245.144 326.27C246.424 326.27 247.434 325.88 248.174 325.1C248.934 324.3 249.314 323.16 249.314 321.68V312.47H252.734ZM256.106 320.66C256.106 319 256.446 317.53 257.126 316.25C257.826 314.97 258.766 313.98 259.946 313.28C261.146 312.56 262.466 312.2 263.906 312.2C265.206 312.2 266.336 312.46 267.296 312.98C268.276 313.48 269.056 314.11 269.636 314.87V312.47H273.086V329H269.636V326.54C269.056 327.32 268.266 327.97 267.266 328.49C266.266 329.01 265.126 329.27 263.846 329.27C262.426 329.27 261.126 328.91 259.946 328.19C258.766 327.45 257.826 326.43 257.126 325.13C256.446 323.81 256.106 322.32 256.106 320.66ZM269.636 320.72C269.636 319.58 269.396 318.59 268.916 317.75C268.456 316.91 267.846 316.27 267.086 315.83C266.326 315.39 265.506 315.17 264.626 315.17C263.746 315.17 262.926 315.39 262.166 315.83C261.406 316.25 260.786 316.88 260.306 317.72C259.846 318.54 259.616 319.52 259.616 320.66C259.616 321.8 259.846 322.8 260.306 323.66C260.786 324.52 261.406 325.18 262.166 325.64C262.946 326.08 263.766 326.3 264.626 326.3C265.506 326.3 266.326 326.08 267.086 325.64C267.846 325.2 268.456 324.56 268.916 323.72C269.396 322.86 269.636 321.86 269.636 320.72ZM283.578 329.27C282.278 329.27 281.108 329.04 280.068 328.58C279.048 328.1 278.238 327.46 277.638 326.66C277.038 325.84 276.718 324.93 276.678 323.93H280.218C280.278 324.63 280.608 325.22 281.208 325.7C281.828 326.16 282.598 326.39 283.518 326.39C284.478 326.39 285.218 326.21 285.738 325.85C286.278 325.47 286.548 324.99 286.548 324.41C286.548 323.79 286.248 323.33 285.648 323.03C285.068 322.73 284.138 322.4 282.858 322.04C281.618 321.7 280.608 321.37 279.828 321.05C279.048 320.73 278.368 320.24 277.788 319.58C277.228 318.92 276.948 318.05 276.948 316.97C276.948 316.09 277.208 315.29 277.728 314.57C278.248 313.83 278.988 313.25 279.948 312.83C280.928 312.41 282.048 312.2 283.308 312.2C285.188 312.2 286.698 312.68 287.838 313.64C288.998 314.58 289.618 315.87 289.698 317.51H286.278C286.218 316.77 285.918 316.18 285.378 315.74C284.838 315.3 284.108 315.08 283.188 315.08C282.288 315.08 281.598 315.25 281.118 315.59C280.638 315.93 280.398 316.38 280.398 316.94C280.398 317.38 280.558 317.75 280.878 318.05C281.198 318.35 281.588 318.59 282.048 318.77C282.508 318.93 283.188 319.14 284.088 319.4C285.288 319.72 286.268 320.05 287.028 320.39C287.808 320.71 288.478 321.19 289.038 321.83C289.598 322.47 289.888 323.32 289.908 324.38C289.908 325.32 289.648 326.16 289.128 326.9C288.608 327.64 287.868 328.22 286.908 328.64C285.968 329.06 284.858 329.27 283.578 329.27ZM56.6517 355.26H53.5917V369H50.1417V355.26H48.1917V352.47H50.1417V351.3C50.1417 349.4 50.6417 348.02 51.6417 347.16C52.6617 346.28 54.2517 345.84 56.4117 345.84V348.69C55.3717 348.69 54.6417 348.89 54.2217 349.29C53.8017 349.67 53.5917 350.34 53.5917 351.3V352.47H56.6517V355.26ZM61.4226 350.28C60.8026 350.28 60.2826 350.07 59.8626 349.65C59.4426 349.23 59.2326 348.71 59.2326 348.09C59.2326 347.47 59.4426 346.95 59.8626 346.53C60.2826 346.11 60.8026 345.9 61.4226 345.9C62.0226 345.9 62.5326 346.11 62.9526 346.53C63.3726 346.95 63.5826 347.47 63.5826 348.09C63.5826 348.71 63.3726 349.23 62.9526 349.65C62.5326 350.07 62.0226 350.28 61.4226 350.28ZM63.1026 352.47V369H59.6826V352.47H63.1026ZM75.9328 352.2C77.2328 352.2 78.3928 352.47 79.4128 353.01C80.4528 353.55 81.2628 354.35 81.8428 355.41C82.4228 356.47 82.7128 357.75 82.7128 359.25V369H79.3228V359.76C79.3228 358.28 78.9528 357.15 78.2128 356.37C77.4728 355.57 76.4628 355.17 75.1828 355.17C73.9028 355.17 72.8828 355.57 72.1228 356.37C71.3828 357.15 71.0128 358.28 71.0128 359.76V369H67.5928V352.47H71.0128V354.36C71.5728 353.68 72.2828 353.15 73.1428 352.77C74.0228 352.39 74.9528 352.2 75.9328 352.2ZM85.9352 360.66C85.9352 359 86.2752 357.53 86.9552 356.25C87.6552 354.97 88.5952 353.98 89.7752 353.28C90.9752 352.56 92.2952 352.2 93.7352 352.2C95.0352 352.2 96.1652 352.46 97.1252 352.98C98.1052 353.48 98.8852 354.11 99.4652 354.87V352.47H102.915V369H99.4652V366.54C98.8852 367.32 98.0952 367.97 97.0952 368.49C96.0952 369.01 94.9552 369.27 93.6752 369.27C92.2552 369.27 90.9552 368.91 89.7752 368.19C88.5952 367.45 87.6552 366.43 86.9552 365.13C86.2752 363.81 85.9352 362.32 85.9352 360.66ZM99.4652 360.72C99.4652 359.58 99.2252 358.59 98.7452 357.75C98.2852 356.91 97.6752 356.27 96.9152 355.83C96.1552 355.39 95.3352 355.17 94.4552 355.17C93.5752 355.17 92.7552 355.39 91.9952 355.83C91.2352 356.25 90.6152 356.88 90.1352 357.72C89.6752 358.54 89.4452 359.52 89.4452 360.66C89.4452 361.8 89.6752 362.8 90.1352 363.66C90.6152 364.52 91.2352 365.18 91.9952 365.64C92.7752 366.08 93.5952 366.3 94.4552 366.3C95.3352 366.3 96.1552 366.08 96.9152 365.64C97.6752 365.2 98.2852 364.56 98.7452 363.72C99.2252 362.86 99.4652 361.86 99.4652 360.72ZM115.747 352.2C117.047 352.2 118.207 352.47 119.227 353.01C120.267 353.55 121.077 354.35 121.657 355.41C122.237 356.47 122.527 357.75 122.527 359.25V369H119.137V359.76C119.137 358.28 118.767 357.15 118.027 356.37C117.287 355.57 116.277 355.17 114.997 355.17C113.717 355.17 112.697 355.57 111.937 356.37C111.197 357.15 110.827 358.28 110.827 359.76V369H107.407V352.47H110.827V354.36C111.387 353.68 112.097 353.15 112.957 352.77C113.837 352.39 114.767 352.2 115.747 352.2ZM133.85 366.39C135.83 366.39 137.14 365.52 137.78 363.78H141.47C141.03 365.3 140.24 366.55 139.1 367.53C137.98 368.49 136.57 369.05 134.87 369.21V370.44C136.03 370.44 136.97 370.71 137.69 371.25C138.41 371.81 138.77 372.59 138.77 373.59C138.77 374.59 138.41 375.38 137.69 375.96C136.97 376.56 136.06 376.86 134.96 376.86H131V374.7H134.27C134.83 374.7 135.25 374.62 135.53 374.46C135.81 374.3 135.95 374.01 135.95 373.59C135.95 373.17 135.81 372.88 135.53 372.72C135.25 372.56 134.83 372.48 134.27 372.48H132.62V369.18C131.26 369.02 130.06 368.57 129.02 367.83C127.98 367.07 127.17 366.09 126.59 364.89C126.03 363.67 125.75 362.28 125.75 360.72C125.75 359.02 126.09 357.53 126.77 356.25C127.47 354.95 128.43 353.95 129.65 353.25C130.87 352.55 132.27 352.2 133.85 352.2C135.85 352.2 137.5 352.68 138.8 353.64C140.12 354.58 141.01 355.93 141.47 357.69H137.78C137.48 356.87 137 356.23 136.34 355.77C135.68 355.31 134.85 355.08 133.85 355.08C132.45 355.08 131.33 355.58 130.49 356.58C129.67 357.56 129.26 358.94 129.26 360.72C129.26 362.5 129.67 363.89 130.49 364.89C131.33 365.89 132.45 366.39 133.85 366.39ZM143.738 360.66C143.738 359 144.078 357.53 144.758 356.25C145.458 354.97 146.398 353.98 147.578 353.28C148.778 352.56 150.098 352.2 151.538 352.2C152.838 352.2 153.968 352.46 154.928 352.98C155.908 353.48 156.688 354.11 157.268 354.87V352.47H160.718V369H157.268V366.54C156.688 367.32 155.898 367.97 154.898 368.49C153.898 369.01 152.758 369.27 151.478 369.27C150.058 369.27 148.758 368.91 147.578 368.19C146.398 367.45 145.458 366.43 144.758 365.13C144.078 363.81 143.738 362.32 143.738 360.66ZM157.268 360.72C157.268 359.58 157.028 358.59 156.548 357.75C156.088 356.91 155.478 356.27 154.718 355.83C153.958 355.39 153.138 355.17 152.258 355.17C151.378 355.17 150.558 355.39 149.798 355.83C149.038 356.25 148.418 356.88 147.938 357.72C147.478 358.54 147.248 359.52 147.248 360.66C147.248 361.8 147.478 362.8 147.938 363.66C148.418 364.52 149.038 365.18 149.798 365.64C150.578 366.08 151.398 366.3 152.258 366.3C153.138 366.3 153.958 366.08 154.718 365.64C155.478 365.2 156.088 364.56 156.548 363.72C157.028 362.86 157.268 361.86 157.268 360.72ZM171.21 369.27C169.91 369.27 168.74 369.04 167.7 368.58C166.68 368.1 165.87 367.46 165.27 366.66C164.67 365.84 164.35 364.93 164.31 363.93H167.85C167.91 364.63 168.24 365.22 168.84 365.7C169.46 366.16 170.23 366.39 171.15 366.39C172.11 366.39 172.85 366.21 173.37 365.85C173.91 365.47 174.18 364.99 174.18 364.41C174.18 363.79 173.88 363.33 173.28 363.03C172.7 362.73 171.77 362.4 170.49 362.04C169.25 361.7 168.24 361.37 167.46 361.05C166.68 360.73 166 360.24 165.42 359.58C164.86 358.92 164.58 358.05 164.58 356.97C164.58 356.09 164.84 355.29 165.36 354.57C165.88 353.83 166.62 353.25 167.58 352.83C168.56 352.41 169.68 352.2 170.94 352.2C172.82 352.2 174.33 352.68 175.47 353.64C176.63 354.58 177.25 355.87 177.33 357.51H173.91C173.85 356.77 173.55 356.18 173.01 355.74C172.47 355.3 171.74 355.08 170.82 355.08C169.92 355.08 169.23 355.25 168.75 355.59C168.27 355.93 168.03 356.38 168.03 356.94C168.03 357.38 168.19 357.75 168.51 358.05C168.83 358.35 169.22 358.59 169.68 358.77C170.14 358.93 170.82 359.14 171.72 359.4C172.92 359.72 173.9 360.05 174.66 360.39C175.44 360.71 176.11 361.19 176.67 361.83C177.23 362.47 177.52 363.32 177.54 364.38C177.54 365.32 177.28 366.16 176.76 366.9C176.24 367.64 175.5 368.22 174.54 368.64C173.6 369.06 172.49 369.27 171.21 369.27ZM187.888 360.66C187.888 359 188.228 357.53 188.908 356.25C189.608 354.97 190.548 353.98 191.728 353.28C192.928 352.56 194.258 352.2 195.718 352.2C196.798 352.2 197.858 352.44 198.898 352.92C199.958 353.38 200.798 354 201.418 354.78V346.8H204.868V369H201.418V366.51C200.858 367.31 200.078 367.97 199.078 368.49C198.098 369.01 196.968 369.27 195.688 369.27C194.248 369.27 192.928 368.91 191.728 368.19C190.548 367.45 189.608 366.43 188.908 365.13C188.228 363.81 187.888 362.32 187.888 360.66ZM201.418 360.72C201.418 359.58 201.178 358.59 200.698 357.75C200.238 356.91 199.628 356.27 198.868 355.83C198.108 355.39 197.288 355.17 196.408 355.17C195.528 355.17 194.708 355.39 193.948 355.83C193.188 356.25 192.568 356.88 192.088 357.72C191.628 358.54 191.398 359.52 191.398 360.66C191.398 361.8 191.628 362.8 192.088 363.66C192.568 364.52 193.188 365.18 193.948 365.64C194.728 366.08 195.548 366.3 196.408 366.3C197.288 366.3 198.108 366.08 198.868 365.64C199.628 365.2 200.238 364.56 200.698 363.72C201.178 362.86 201.418 361.86 201.418 360.72ZM224.51 360.33C224.51 360.95 224.47 361.51 224.39 362.01H211.76C211.86 363.33 212.35 364.39 213.23 365.19C214.11 365.99 215.19 366.39 216.47 366.39C218.31 366.39 219.61 365.62 220.37 364.08H224.06C223.56 365.6 222.65 366.85 221.33 367.83C220.03 368.79 218.41 369.27 216.47 369.27C214.89 369.27 213.47 368.92 212.21 368.22C210.97 367.5 209.99 366.5 209.27 365.22C208.57 363.92 208.22 362.42 208.22 360.72C208.22 359.02 208.56 357.53 209.24 356.25C209.94 354.95 210.91 353.95 212.15 353.25C213.41 352.55 214.85 352.2 216.47 352.2C218.03 352.2 219.42 352.54 220.64 353.22C221.86 353.9 222.81 354.86 223.49 356.1C224.17 357.32 224.51 358.73 224.51 360.33ZM220.94 359.25C220.92 357.99 220.47 356.98 219.59 356.22C218.71 355.46 217.62 355.08 216.32 355.08C215.14 355.08 214.13 355.46 213.29 356.22C212.45 356.96 211.95 357.97 211.79 359.25H220.94ZM242.599 355.26H239.539V369H236.089V355.26H234.139V352.47H236.089V351.3C236.089 349.4 236.589 348.02 237.589 347.16C238.609 346.28 240.199 345.84 242.359 345.84V348.69C241.319 348.69 240.589 348.89 240.169 349.29C239.749 349.67 239.539 350.34 239.539 351.3V352.47H242.599V355.26ZM252.8 369.27C251.24 369.27 249.83 368.92 248.57 368.22C247.31 367.5 246.32 366.5 245.6 365.22C244.88 363.92 244.52 362.42 244.52 360.72C244.52 359.04 244.89 357.55 245.63 356.25C246.37 354.95 247.38 353.95 248.66 353.25C249.94 352.55 251.37 352.2 252.95 352.2C254.53 352.2 255.96 352.55 257.24 353.25C258.52 353.95 259.53 354.95 260.27 356.25C261.01 357.55 261.38 359.04 261.38 360.72C261.38 362.4 261 363.89 260.24 365.19C259.48 366.49 258.44 367.5 257.12 368.22C255.82 368.92 254.38 369.27 252.8 369.27ZM252.8 366.3C253.68 366.3 254.5 366.09 255.26 365.67C256.04 365.25 256.67 364.62 257.15 363.78C257.63 362.94 257.87 361.92 257.87 360.72C257.87 359.52 257.64 358.51 257.18 357.69C256.72 356.85 256.11 356.22 255.35 355.8C254.59 355.38 253.77 355.17 252.89 355.17C252.01 355.17 251.19 355.38 250.43 355.8C249.69 356.22 249.1 356.85 248.66 357.69C248.22 358.51 248 359.52 248 360.72C248 362.5 248.45 363.88 249.35 364.86C250.27 365.82 251.42 366.3 252.8 366.3ZM268.181 354.87C268.681 354.03 269.341 353.38 270.161 352.92C271.001 352.44 271.991 352.2 273.131 352.2V355.74H272.261C270.921 355.74 269.901 356.08 269.201 356.76C268.521 357.44 268.181 358.62 268.181 360.3V369H264.761V352.47H268.181V354.87ZM296.284 352.2C297.584 352.2 298.744 352.47 299.764 353.01C300.804 353.55 301.614 354.35 302.194 355.41C302.794 356.47 303.094 357.75 303.094 359.25V369H299.704V359.76C299.704 358.28 299.334 357.15 298.594 356.37C297.854 355.57 296.844 355.17 295.564 355.17C294.284 355.17 293.264 355.57 292.504 356.37C291.764 357.15 291.394 358.28 291.394 359.76V369H288.004V359.76C288.004 358.28 287.634 357.15 286.894 356.37C286.154 355.57 285.144 355.17 283.864 355.17C282.584 355.17 281.564 355.57 280.804 356.37C280.064 357.15 279.694 358.28 279.694 359.76V369H276.274V352.47H279.694V354.36C280.254 353.68 280.964 353.15 281.824 352.77C282.684 352.39 283.604 352.2 284.584 352.2C285.904 352.2 287.084 352.48 288.124 353.04C289.164 353.6 289.964 354.41 290.524 355.47C291.024 354.47 291.804 353.68 292.864 353.1C293.924 352.5 295.064 352.2 296.284 352.2ZM306.306 360.66C306.306 359 306.646 357.53 307.326 356.25C308.026 354.97 308.966 353.98 310.146 353.28C311.346 352.56 312.666 352.2 314.106 352.2C315.406 352.2 316.536 352.46 317.496 352.98C318.476 353.48 319.256 354.11 319.836 354.87V352.47H323.286V369H319.836V366.54C319.256 367.32 318.466 367.97 317.466 368.49C316.466 369.01 315.326 369.27 314.046 369.27C312.626 369.27 311.326 368.91 310.146 368.19C308.966 367.45 308.026 366.43 307.326 365.13C306.646 363.81 306.306 362.32 306.306 360.66ZM319.836 360.72C319.836 359.58 319.596 358.59 319.116 357.75C318.656 356.91 318.046 356.27 317.286 355.83C316.526 355.39 315.706 355.17 314.826 355.17C313.946 355.17 313.126 355.39 312.366 355.83C311.606 356.25 310.986 356.88 310.506 357.72C310.046 358.54 309.816 359.52 309.816 360.66C309.816 361.8 310.046 362.8 310.506 363.66C310.986 364.52 311.606 365.18 312.366 365.64C313.146 366.08 313.966 366.3 314.826 366.3C315.706 366.3 316.526 366.08 317.286 365.64C318.046 365.2 318.656 364.56 319.116 363.72C319.596 362.86 319.836 361.86 319.836 360.72ZM101.489 392.2C102.789 392.2 103.949 392.47 104.969 393.01C106.009 393.55 106.819 394.35 107.399 395.41C107.999 396.47 108.299 397.75 108.299 399.25V409H104.909V399.76C104.909 398.28 104.539 397.15 103.799 396.37C103.059 395.57 102.049 395.17 100.769 395.17C99.4895 395.17 98.4695 395.57 97.7095 396.37C96.9695 397.15 96.5995 398.28 96.5995 399.76V409H93.2095V399.76C93.2095 398.28 92.8395 397.15 92.0995 396.37C91.3595 395.57 90.3495 395.17 89.0695 395.17C87.7895 395.17 86.7695 395.57 86.0095 396.37C85.2695 397.15 84.8995 398.28 84.8995 399.76V409H81.4795V392.47H84.8995V394.36C85.4595 393.68 86.1695 393.15 87.0295 392.77C87.8895 392.39 88.8095 392.2 89.7895 392.2C91.1095 392.2 92.2895 392.48 93.3295 393.04C94.3695 393.6 95.1695 394.41 95.7295 395.47C96.2295 394.47 97.0095 393.68 98.0695 393.1C99.1295 392.5 100.269 392.2 101.489 392.2ZM127.621 392.47V409H124.201V407.05C123.661 407.73 122.951 408.27 122.071 408.67C121.211 409.05 120.291 409.24 119.311 409.24C118.011 409.24 116.841 408.97 115.801 408.43C114.781 407.89 113.971 407.09 113.371 406.03C112.791 404.97 112.501 403.69 112.501 402.19V392.47H115.891V401.68C115.891 403.16 116.261 404.3 117.001 405.1C117.741 405.88 118.751 406.27 120.031 406.27C121.311 406.27 122.321 405.88 123.061 405.1C123.821 404.3 124.201 403.16 124.201 401.68V392.47H127.621ZM133.874 390.28C133.254 390.28 132.734 390.07 132.314 389.65C131.894 389.23 131.684 388.71 131.684 388.09C131.684 387.47 131.894 386.95 132.314 386.53C132.734 386.11 133.254 385.9 133.874 385.9C134.474 385.9 134.984 386.11 135.404 386.53C135.824 386.95 136.034 387.47 136.034 388.09C136.034 388.71 135.824 389.23 135.404 389.65C134.984 390.07 134.474 390.28 133.874 390.28ZM135.554 392.47V409H132.134V392.47H135.554ZM144.034 395.26V404.41C144.034 405.03 144.174 405.48 144.454 405.76C144.754 406.02 145.254 406.15 145.954 406.15H148.054V409H145.354C143.814 409 142.634 408.64 141.814 407.92C140.994 407.2 140.584 406.03 140.584 404.41V395.26H138.634V392.47H140.584V388.36H144.034V392.47H148.054V395.26H144.034ZM158.376 409.27C156.816 409.27 155.406 408.92 154.146 408.22C152.886 407.5 151.896 406.5 151.176 405.22C150.456 403.92 150.096 402.42 150.096 400.72C150.096 399.04 150.466 397.55 151.206 396.25C151.946 394.95 152.956 393.95 154.236 393.25C155.516 392.55 156.946 392.2 158.526 392.2C160.106 392.2 161.536 392.55 162.816 393.25C164.096 393.95 165.106 394.95 165.846 396.25C166.586 397.55 166.956 399.04 166.956 400.72C166.956 402.4 166.576 403.89 165.816 405.19C165.056 406.49 164.016 407.5 162.696 408.22C161.396 408.92 159.956 409.27 158.376 409.27ZM158.376 406.3C159.256 406.3 160.076 406.09 160.836 405.67C161.616 405.25 162.246 404.62 162.726 403.78C163.206 402.94 163.446 401.92 163.446 400.72C163.446 399.52 163.216 398.51 162.756 397.69C162.296 396.85 161.686 396.22 160.926 395.8C160.166 395.38 159.346 395.17 158.466 395.17C157.586 395.17 156.766 395.38 156.006 395.8C155.266 396.22 154.676 396.85 154.236 397.69C153.796 398.51 153.576 399.52 153.576 400.72C153.576 402.5 154.026 403.88 154.926 404.86C155.846 405.82 156.996 406.3 158.376 406.3ZM184.13 409.27C182.83 409.27 181.66 409.04 180.62 408.58C179.6 408.1 178.79 407.46 178.19 406.66C177.59 405.84 177.27 404.93 177.23 403.93H180.77C180.83 404.63 181.16 405.22 181.76 405.7C182.38 406.16 183.15 406.39 184.07 406.39C185.03 406.39 185.77 406.21 186.29 405.85C186.83 405.47 187.1 404.99 187.1 404.41C187.1 403.79 186.8 403.33 186.2 403.03C185.62 402.73 184.69 402.4 183.41 402.04C182.17 401.7 181.16 401.37 180.38 401.05C179.6 400.73 178.92 400.24 178.34 399.58C177.78 398.92 177.5 398.05 177.5 396.97C177.5 396.09 177.76 395.29 178.28 394.57C178.8 393.83 179.54 393.25 180.5 392.83C181.48 392.41 182.6 392.2 183.86 392.2C185.74 392.2 187.25 392.68 188.39 393.64C189.55 394.58 190.17 395.87 190.25 397.51H186.83C186.77 396.77 186.47 396.18 185.93 395.74C185.39 395.3 184.66 395.08 183.74 395.08C182.84 395.08 182.15 395.25 181.67 395.59C181.19 395.93 180.95 396.38 180.95 396.94C180.95 397.38 181.11 397.75 181.43 398.05C181.75 398.35 182.14 398.59 182.6 398.77C183.06 398.93 183.74 399.14 184.64 399.4C185.84 399.72 186.82 400.05 187.58 400.39C188.36 400.71 189.03 401.19 189.59 401.83C190.15 402.47 190.44 403.32 190.46 404.38C190.46 405.32 190.2 406.16 189.68 406.9C189.16 407.64 188.42 408.22 187.46 408.64C186.52 409.06 185.41 409.27 184.13 409.27ZM195.895 390.28C195.275 390.28 194.755 390.07 194.335 389.65C193.915 389.23 193.705 388.71 193.705 388.09C193.705 387.47 193.915 386.95 194.335 386.53C194.755 386.11 195.275 385.9 195.895 385.9C196.495 385.9 197.005 386.11 197.425 386.53C197.845 386.95 198.055 387.47 198.055 388.09C198.055 388.71 197.845 389.23 197.425 389.65C197.005 390.07 196.495 390.28 195.895 390.28ZM197.575 392.47V409H194.155V392.47H197.575ZM222.075 392.2C223.375 392.2 224.535 392.47 225.555 393.01C226.595 393.55 227.405 394.35 227.985 395.41C228.585 396.47 228.885 397.75 228.885 399.25V409H225.495V399.76C225.495 398.28 225.125 397.15 224.385 396.37C223.645 395.57 222.635 395.17 221.355 395.17C220.075 395.17 219.055 395.57 218.295 396.37C217.555 397.15 217.185 398.28 217.185 399.76V409H213.795V399.76C213.795 398.28 213.425 397.15 212.685 396.37C211.945 395.57 210.935 395.17 209.655 395.17C208.375 395.17 207.355 395.57 206.595 396.37C205.855 397.15 205.485 398.28 205.485 399.76V409H202.065V392.47H205.485V394.36C206.045 393.68 206.755 393.15 207.615 392.77C208.475 392.39 209.395 392.2 210.375 392.2C211.695 392.2 212.875 392.48 213.915 393.04C214.955 393.6 215.755 394.41 216.315 395.47C216.815 394.47 217.595 393.68 218.655 393.1C219.715 392.5 220.855 392.2 222.075 392.2ZM236.657 394.9C237.237 394.14 238.027 393.5 239.027 392.98C240.027 392.46 241.157 392.2 242.417 392.2C243.857 392.2 245.167 392.56 246.347 393.28C247.547 393.98 248.487 394.97 249.167 396.25C249.847 397.53 250.187 399 250.187 400.66C250.187 402.32 249.847 403.81 249.167 405.13C248.487 406.43 247.547 407.45 246.347 408.19C245.167 408.91 243.857 409.27 242.417 409.27C241.157 409.27 240.037 409.02 239.057 408.52C238.077 408 237.277 407.36 236.657 406.6V416.86H233.237V392.47H236.657V394.9ZM246.707 400.66C246.707 399.52 246.467 398.54 245.987 397.72C245.527 396.88 244.907 396.25 244.127 395.83C243.367 395.39 242.547 395.17 241.667 395.17C240.807 395.17 239.987 395.39 239.207 395.83C238.447 396.27 237.827 396.91 237.347 397.75C236.887 398.59 236.657 399.58 236.657 400.72C236.657 401.86 236.887 402.86 237.347 403.72C237.827 404.56 238.447 405.2 239.207 405.64C239.987 406.08 240.807 406.3 241.667 406.3C242.547 406.3 243.367 406.08 244.127 405.64C244.907 405.18 245.527 404.52 245.987 403.66C246.467 402.8 246.707 401.8 246.707 400.66ZM256.989 386.8V409H253.569V386.8H256.989ZM276.629 400.33C276.629 400.95 276.589 401.51 276.509 402.01H263.879C263.979 403.33 264.469 404.39 265.349 405.19C266.229 405.99 267.309 406.39 268.589 406.39C270.429 406.39 271.729 405.62 272.489 404.08H276.179C275.679 405.6 274.769 406.85 273.449 407.83C272.149 408.79 270.529 409.27 268.589 409.27C267.009 409.27 265.589 408.92 264.329 408.22C263.089 407.5 262.109 406.5 261.389 405.22C260.689 403.92 260.339 402.42 260.339 400.72C260.339 399.02 260.679 397.53 261.359 396.25C262.059 394.95 263.029 393.95 264.269 393.25C265.529 392.55 266.969 392.2 268.589 392.2C270.149 392.2 271.539 392.54 272.759 393.22C273.979 393.9 274.929 394.86 275.609 396.1C276.289 397.32 276.629 398.73 276.629 400.33ZM273.059 399.25C273.039 397.99 272.589 396.98 271.709 396.22C270.829 395.46 269.739 395.08 268.439 395.08C267.259 395.08 266.249 395.46 265.409 396.22C264.569 396.96 264.069 397.97 263.909 399.25H273.059ZM285.995 409.27C284.695 409.27 283.525 409.04 282.485 408.58C281.465 408.1 280.655 407.46 280.055 406.66C279.455 405.84 279.135 404.93 279.095 403.93H282.635C282.695 404.63 283.025 405.22 283.625 405.7C284.245 406.16 285.015 406.39 285.935 406.39C286.895 406.39 287.635 406.21 288.155 405.85C288.695 405.47 288.965 404.99 288.965 404.41C288.965 403.79 288.665 403.33 288.065 403.03C287.485 402.73 286.555 402.4 285.275 402.04C284.035 401.7 283.025 401.37 282.245 401.05C281.465 400.73 280.785 400.24 280.205 399.58C279.645 398.92 279.365 398.05 279.365 396.97C279.365 396.09 279.625 395.29 280.145 394.57C280.665 393.83 281.405 393.25 282.365 392.83C283.345 392.41 284.465 392.2 285.725 392.2C287.605 392.2 289.115 392.68 290.255 393.64C291.415 394.58 292.035 395.87 292.115 397.51H288.695C288.635 396.77 288.335 396.18 287.795 395.74C287.255 395.3 286.525 395.08 285.605 395.08C284.705 395.08 284.015 395.25 283.535 395.59C283.055 395.93 282.815 396.38 282.815 396.94C282.815 397.38 282.975 397.75 283.295 398.05C283.615 398.35 284.005 398.59 284.465 398.77C284.925 398.93 285.605 399.14 286.505 399.4C287.705 399.72 288.685 400.05 289.445 400.39C290.225 400.71 290.895 401.19 291.455 401.83C292.015 402.47 292.305 403.32 292.325 404.38C292.325 405.32 292.065 406.16 291.545 406.9C291.025 407.64 290.285 408.22 289.325 408.64C288.385 409.06 287.275 409.27 285.995 409.27Z" fill="white"/>
<line x1="88.5" y1="540" x2="88.5" y2="596" stroke="#F0F2F5"/>
<line x1="88.5" y1="612" x2="88.5" y2="668" stroke="#F0F2F5"/>
<defs>
<clipPath id="clip0_39329_1625">
<rect width="24" height="24.4898" fill="white" transform="translate(48 556)"/>
</clipPath>
</defs>
</svg>
